{
	"patcher" : 	{
		"fileversion" : 1,
		"rect" : [ 324.0, 44.0, 1153.0, 656.0 ],
		"bglocked" : 0,
		"defrect" : [ 324.0, 44.0, 1153.0, 656.0 ],
		"openrect" : [ 0.0, 0.0, 0.0, 0.0 ],
		"openinpresentation" : 0,
		"default_fontsize" : 12.0,
		"default_fontface" : 0,
		"default_fontname" : "Arial",
		"gridonopen" : 0,
		"gridsize" : [ 10.0, 10.0 ],
		"gridsnaponopen" : 0,
		"toolbarvisible" : 1,
		"boxanimatetime" : 200,
		"imprint" : 0,
		"metadata" : [  ],
		"boxes" : [ 			{
				"box" : 				{
					"maxclass" : "newobj",
					"text" : "r attack",
					"numoutlets" : 1,
					"outlettype" : [ "" ],
					"fontname" : "Arial",
					"patching_rect" : [ 723.0, 55.0, 50.0, 20.0 ],
					"fontsize" : 12.0,
					"id" : "obj-73",
					"numinlets" : 0
				}

			}
, 			{
				"box" : 				{
					"maxclass" : "newobj",
					"text" : "r attack",
					"numoutlets" : 1,
					"outlettype" : [ "" ],
					"fontname" : "Arial",
					"patching_rect" : [ 540.0, 114.0, 50.0, 20.0 ],
					"fontsize" : 12.0,
					"id" : "obj-70",
					"numinlets" : 0
				}

			}
, 			{
				"box" : 				{
					"maxclass" : "newobj",
					"text" : "r attack",
					"numoutlets" : 1,
					"outlettype" : [ "" ],
					"fontname" : "Arial",
					"patching_rect" : [ 708.0, 40.0, 50.0, 20.0 ],
					"fontsize" : 12.0,
					"id" : "obj-68",
					"numinlets" : 0
				}

			}
, 			{
				"box" : 				{
					"maxclass" : "newobj",
					"text" : "s attack",
					"numoutlets" : 0,
					"fontname" : "Arial",
					"patching_rect" : [ 342.0, 206.0, 52.0, 20.0 ],
					"fontsize" : 12.0,
					"id" : "obj-66",
					"numinlets" : 1
				}

			}
, 			{
				"box" : 				{
					"maxclass" : "newobj",
					"text" : "s to_freeze",
					"numoutlets" : 0,
					"fontname" : "Arial",
					"patching_rect" : [ 595.0, 496.0, 70.0, 20.0 ],
					"fontsize" : 12.0,
					"id" : "obj-61",
					"numinlets" : 1
				}

			}
, 			{
				"box" : 				{
					"maxclass" : "newobj",
					"text" : "s to_freeze",
					"numoutlets" : 0,
					"fontname" : "Arial",
					"patching_rect" : [ 861.0, 553.0, 70.0, 20.0 ],
					"fontsize" : 12.0,
					"id" : "obj-58",
					"numinlets" : 1
				}

			}
, 			{
				"box" : 				{
					"maxclass" : "slider",
					"floatoutput" : 1,
					"numoutlets" : 1,
					"relative" : 1,
					"outlettype" : [ "" ],
					"mult" : 0.01,
					"patching_rect" : [ 861.0, 481.0, 106.0, 15.0 ],
					"id" : "obj-57",
					"numinlets" : 1,
					"size" : 100.0
				}

			}
, 			{
				"box" : 				{
					"maxclass" : "message",
					"text" : "pitch 0.666667, offset 0, ranpitch 0 randur 0, loop 0, stereo 0.7, right 1",
					"numoutlets" : 1,
					"outlettype" : [ "" ],
					"fontname" : "Arial",
					"patching_rect" : [ 74.0, 555.0, 382.0, 18.0 ],
					"fontsize" : 12.0,
					"id" : "obj-56",
					"numinlets" : 2
				}

			}
, 			{
				"box" : 				{
					"maxclass" : "flonum",
					"numoutlets" : 2,
					"outlettype" : [ "float", "bang" ],
					"fontname" : "Arial",
					"patching_rect" : [ 861.0, 501.0, 50.0, 20.0 ],
					"fontsize" : 12.0,
					"id" : "obj-52",
					"numinlets" : 1
				}

			}
, 			{
				"box" : 				{
					"maxclass" : "newobj",
					"text" : "r to_freeze",
					"numoutlets" : 1,
					"outlettype" : [ "" ],
					"fontname" : "Arial",
					"patching_rect" : [ 272.0, 269.0, 68.0, 20.0 ],
					"fontsize" : 12.0,
					"id" : "obj-33",
					"numinlets" : 0
				}

			}
, 			{
				"box" : 				{
					"maxclass" : "newobj",
					"text" : "s to_freeze",
					"numoutlets" : 0,
					"fontname" : "Arial",
					"patching_rect" : [ 74.0, 577.0, 70.0, 20.0 ],
					"fontsize" : 12.0,
					"id" : "obj-26",
					"numinlets" : 1
				}

			}
, 			{
				"box" : 				{
					"maxclass" : "umenu",
					"numoutlets" : 3,
					"outlettype" : [ "int", "", "" ],
					"fontname" : "Arial",
					"items" : [ "off", ",", "synced", ",", "random" ],
					"types" : [  ],
					"patching_rect" : [ 743.0, 348.0, 100.0, 20.0 ],
					"fontsize" : 12.0,
					"id" : "obj-24",
					"numinlets" : 1
				}

			}
, 			{
				"box" : 				{
					"maxclass" : "newobj",
					"text" : "switch 2",
					"numoutlets" : 1,
					"outlettype" : [ "" ],
					"fontname" : "Arial",
					"patching_rect" : [ 733.0, 385.0, 54.0, 20.0 ],
					"fontsize" : 12.0,
					"id" : "obj-2",
					"numinlets" : 3
				}

			}
, 			{
				"box" : 				{
					"maxclass" : "number",
					"numoutlets" : 2,
					"outlettype" : [ "int", "bang" ],
					"fontname" : "Arial",
					"patching_rect" : [ 795.0, 244.0, 50.0, 20.0 ],
					"fontsize" : 12.0,
					"id" : "obj-74",
					"numinlets" : 1
				}

			}
, 			{
				"box" : 				{
					"maxclass" : "message",
					"text" : "10000",
					"numoutlets" : 1,
					"outlettype" : [ "" ],
					"fontname" : "Arial",
					"patching_rect" : [ 454.0, 239.0, 44.0, 18.0 ],
					"fontsize" : 12.0,
					"id" : "obj-72",
					"numinlets" : 2
				}

			}
, 			{
				"box" : 				{
					"maxclass" : "number",
					"numoutlets" : 2,
					"outlettype" : [ "int", "bang" ],
					"fontname" : "Arial",
					"patching_rect" : [ 748.0, 272.0, 50.0, 20.0 ],
					"fontsize" : 12.0,
					"id" : "obj-67",
					"numinlets" : 1
				}

			}
, 			{
				"box" : 				{
					"maxclass" : "newobj",
					"text" : "* 2",
					"numoutlets" : 1,
					"outlettype" : [ "int" ],
					"fontname" : "Arial",
					"patching_rect" : [ 702.0, 281.0, 32.5, 20.0 ],
					"fontsize" : 12.0,
					"id" : "obj-65",
					"numinlets" : 2
				}

			}
, 			{
				"box" : 				{
					"maxclass" : "newobj",
					"text" : "xrand 1 6",
					"numoutlets" : 2,
					"outlettype" : [ "float", "bang" ],
					"fontname" : "Arial",
					"patching_rect" : [ 718.0, 238.0, 61.0, 20.0 ],
					"fontsize" : 12.0,
					"id" : "obj-64",
					"numinlets" : 4
				}

			}
, 			{
				"box" : 				{
					"maxclass" : "newobj",
					"text" : "t b f",
					"numoutlets" : 2,
					"outlettype" : [ "bang", "float" ],
					"fontname" : "Arial",
					"patching_rect" : [ 633.0, 254.0, 32.5, 20.0 ],
					"fontsize" : 12.0,
					"id" : "obj-63",
					"numinlets" : 1
				}

			}
, 			{
				"box" : 				{
					"maxclass" : "number",
					"numoutlets" : 2,
					"outlettype" : [ "int", "bang" ],
					"fontname" : "Arial",
					"patching_rect" : [ 643.0, 231.0, 50.0, 20.0 ],
					"fontsize" : 12.0,
					"id" : "obj-62",
					"numinlets" : 1
				}

			}
, 			{
				"box" : 				{
					"maxclass" : "newobj",
					"text" : "/ 1.",
					"numoutlets" : 1,
					"outlettype" : [ "float" ],
					"fontname" : "Arial",
					"patching_rect" : [ 627.0, 283.0, 32.5, 20.0 ],
					"fontsize" : 12.0,
					"id" : "obj-60",
					"numinlets" : 2
				}

			}
, 			{
				"box" : 				{
					"maxclass" : "flonum",
					"numoutlets" : 2,
					"outlettype" : [ "float", "bang" ],
					"fontname" : "Arial",
					"patching_rect" : [ 407.0, 318.0, 65.0, 20.0 ],
					"fontsize" : 12.0,
					"id" : "obj-59",
					"numinlets" : 1
				}

			}
, 			{
				"box" : 				{
					"maxclass" : "newobj",
					"text" : "t f b",
					"numoutlets" : 2,
					"outlettype" : [ "float", "bang" ],
					"fontname" : "Arial",
					"patching_rect" : [ 422.0, 246.0, 32.5, 20.0 ],
					"fontsize" : 12.0,
					"id" : "obj-54",
					"numinlets" : 1
				}

			}
, 			{
				"box" : 				{
					"maxclass" : "newobj",
					"text" : "f",
					"numoutlets" : 1,
					"outlettype" : [ "float" ],
					"fontname" : "Arial",
					"patching_rect" : [ 451.0, 259.0, 32.5, 20.0 ],
					"fontsize" : 12.0,
					"id" : "obj-53",
					"numinlets" : 2
				}

			}
, 			{
				"box" : 				{
					"maxclass" : "newobj",
					"text" : "minimum 10000",
					"numoutlets" : 2,
					"outlettype" : [ "int", "int" ],
					"fontname" : "Arial",
					"patching_rect" : [ 397.0, 284.0, 96.0, 20.0 ],
					"fontsize" : 12.0,
					"id" : "obj-48",
					"numinlets" : 2
				}

			}
, 			{
				"box" : 				{
					"maxclass" : "newobj",
					"text" : "timer",
					"numoutlets" : 2,
					"outlettype" : [ "float", "" ],
					"fontname" : "Arial",
					"patching_rect" : [ 422.0, 218.0, 37.0, 20.0 ],
					"fontsize" : 12.0,
					"id" : "obj-47",
					"numinlets" : 2
				}

			}
, 			{
				"box" : 				{
					"maxclass" : "message",
					"text" : "0 1000",
					"numoutlets" : 1,
					"outlettype" : [ "" ],
					"fontname" : "Arial",
					"patching_rect" : [ 816.0, 159.0, 47.0, 18.0 ],
					"fontsize" : 12.0,
					"id" : "obj-43",
					"numinlets" : 2
				}

			}
, 			{
				"box" : 				{
					"maxclass" : "message",
					"text" : "0 500",
					"numoutlets" : 1,
					"outlettype" : [ "" ],
					"fontname" : "Arial",
					"patching_rect" : [ 801.0, 135.0, 41.0, 18.0 ],
					"fontsize" : 12.0,
					"id" : "obj-42",
					"numinlets" : 2
				}

			}
, 			{
				"box" : 				{
					"maxclass" : "message",
					"text" : "100 200",
					"numoutlets" : 1,
					"outlettype" : [ "" ],
					"fontname" : "Arial",
					"patching_rect" : [ 795.0, 110.0, 54.0, 18.0 ],
					"fontsize" : 12.0,
					"id" : "obj-41",
					"numinlets" : 2
				}

			}
, 			{
				"box" : 				{
					"maxclass" : "message",
					"text" : "10 50",
					"numoutlets" : 1,
					"outlettype" : [ "" ],
					"fontname" : "Arial",
					"patching_rect" : [ 750.0, 104.0, 41.0, 18.0 ],
					"fontsize" : 12.0,
					"id" : "obj-40",
					"numinlets" : 2
				}

			}
, 			{
				"box" : 				{
					"maxclass" : "message",
					"text" : "1 10",
					"numoutlets" : 1,
					"outlettype" : [ "" ],
					"fontname" : "Arial",
					"patching_rect" : [ 712.0, 103.0, 34.0, 18.0 ],
					"fontsize" : 12.0,
					"id" : "obj-39",
					"numinlets" : 2
				}

			}
, 			{
				"box" : 				{
					"maxclass" : "flonum",
					"numoutlets" : 2,
					"outlettype" : [ "float", "bang" ],
					"fontname" : "Arial",
					"patching_rect" : [ 518.0, 11.0, 50.0, 20.0 ],
					"fontsize" : 12.0,
					"id" : "obj-37",
					"numinlets" : 1
				}

			}
, 			{
				"box" : 				{
					"maxclass" : "flonum",
					"numoutlets" : 2,
					"outlettype" : [ "float", "bang" ],
					"fontname" : "Arial",
					"patching_rect" : [ 459.0, 19.0, 50.0, 20.0 ],
					"fontsize" : 12.0,
					"id" : "obj-36",
					"numinlets" : 1
				}

			}
, 			{
				"box" : 				{
					"maxclass" : "newobj",
					"text" : "pak reattack 0. 0.",
					"numoutlets" : 1,
					"outlettype" : [ "" ],
					"fontname" : "Arial",
					"patching_rect" : [ 435.0, 49.0, 103.0, 20.0 ],
					"fontsize" : 12.0,
					"id" : "obj-34",
					"numinlets" : 3
				}

			}
, 			{
				"box" : 				{
					"maxclass" : "newobj",
					"text" : "xrand 10 500",
					"numoutlets" : 2,
					"outlettype" : [ "float", "bang" ],
					"fontname" : "Arial",
					"patching_rect" : [ 701.0, 199.0, 81.0, 20.0 ],
					"fontsize" : 12.0,
					"id" : "obj-32",
					"numinlets" : 4
				}

			}
, 			{
				"box" : 				{
					"maxclass" : "flonum",
					"numoutlets" : 2,
					"outlettype" : [ "float", "bang" ],
					"fontname" : "Arial",
					"patching_rect" : [ 629.0, 132.0, 50.0, 20.0 ],
					"fontsize" : 12.0,
					"id" : "obj-30",
					"numinlets" : 1
				}

			}
, 			{
				"box" : 				{
					"maxclass" : "newobj",
					"text" : "del",
					"numoutlets" : 1,
					"outlettype" : [ "bang" ],
					"fontname" : "Arial",
					"patching_rect" : [ 551.0, 143.0, 32.5, 20.0 ],
					"fontsize" : 12.0,
					"id" : "obj-31",
					"numinlets" : 2
				}

			}
, 			{
				"box" : 				{
					"maxclass" : "flonum",
					"numoutlets" : 2,
					"outlettype" : [ "float", "bang" ],
					"fontname" : "Arial",
					"patching_rect" : [ 564.0, 178.0, 50.0, 20.0 ],
					"fontsize" : 12.0,
					"id" : "obj-28",
					"numinlets" : 1
				}

			}
, 			{
				"box" : 				{
					"maxclass" : "button",
					"numoutlets" : 1,
					"outlettype" : [ "bang" ],
					"patching_rect" : [ 423.0, 137.0, 45.0, 45.0 ],
					"id" : "obj-19",
					"numinlets" : 1
				}

			}
, 			{
				"box" : 				{
					"maxclass" : "flonum",
					"numoutlets" : 2,
					"outlettype" : [ "float", "bang" ],
					"fontname" : "Arial",
					"patching_rect" : [ 653.0, 315.0, 50.0, 20.0 ],
					"fontsize" : 12.0,
					"id" : "obj-14",
					"numinlets" : 1
				}

			}
, 			{
				"box" : 				{
					"maxclass" : "newobj",
					"text" : "pitch~",
					"numoutlets" : 4,
					"outlettype" : [ "bang", "list", "list", "float" ],
					"fontname" : "Geneva",
					"patching_rect" : [ 435.0, 86.0, 75.0, 23.0 ],
					"fontsize" : 12.0,
					"id" : "obj-107",
					"numinlets" : 1,
					"color" : [ 0.156863, 0.8, 0.54902, 1.0 ]
				}

			}
, 			{
				"box" : 				{
					"maxclass" : "newobj",
					"text" : "/ 2972.",
					"numoutlets" : 1,
					"outlettype" : [ "float" ],
					"fontname" : "Arial",
					"patching_rect" : [ 646.0, 348.0, 47.0, 20.0 ],
					"fontsize" : 12.0,
					"id" : "obj-91",
					"numinlets" : 2
				}

			}
, 			{
				"box" : 				{
					"maxclass" : "flonum",
					"numoutlets" : 2,
					"outlettype" : [ "float", "bang" ],
					"fontname" : "Arial",
					"patching_rect" : [ 622.0, 429.0, 50.0, 20.0 ],
					"fontsize" : 12.0,
					"id" : "obj-88",
					"numinlets" : 1
				}

			}
, 			{
				"box" : 				{
					"maxclass" : "toggle",
					"numoutlets" : 1,
					"outlettype" : [ "int" ],
					"patching_rect" : [ 480.0, 217.0, 20.0, 20.0 ],
					"id" : "obj-86",
					"numinlets" : 1
				}

			}
, 			{
				"box" : 				{
					"maxclass" : "newobj",
					"text" : "gate",
					"numoutlets" : 1,
					"outlettype" : [ "" ],
					"fontname" : "Arial",
					"patching_rect" : [ 501.0, 231.0, 34.0, 20.0 ],
					"fontsize" : 12.0,
					"id" : "obj-84",
					"numinlets" : 2
				}

			}
, 			{
				"box" : 				{
					"maxclass" : "newobj",
					"text" : "!- 1.",
					"numoutlets" : 1,
					"outlettype" : [ "float" ],
					"fontname" : "Arial",
					"patching_rect" : [ 572.0, 418.0, 32.5, 20.0 ],
					"fontsize" : 12.0,
					"id" : "obj-71",
					"numinlets" : 2
				}

			}
, 			{
				"box" : 				{
					"maxclass" : "newobj",
					"text" : "pipe",
					"numoutlets" : 1,
					"outlettype" : [ "" ],
					"fontname" : "Arial",
					"patching_rect" : [ 487.0, 189.0, 33.0, 20.0 ],
					"fontsize" : 12.0,
					"id" : "obj-69",
					"numinlets" : 2
				}

			}
, 			{
				"box" : 				{
					"maxclass" : "newobj",
					"text" : "t 0 1",
					"numoutlets" : 2,
					"outlettype" : [ "int", "int" ],
					"fontname" : "Arial",
					"patching_rect" : [ 504.0, 157.0, 34.0, 20.0 ],
					"fontsize" : 12.0,
					"id" : "obj-50",
					"numinlets" : 1
				}

			}
, 			{
				"box" : 				{
					"maxclass" : "flonum",
					"numoutlets" : 2,
					"outlettype" : [ "float", "bang" ],
					"fontname" : "Arial",
					"patching_rect" : [ 598.0, 378.0, 50.0, 20.0 ],
					"fontsize" : 12.0,
					"id" : "obj-44",
					"numinlets" : 1
				}

			}
, 			{
				"box" : 				{
					"maxclass" : "message",
					"text" : "left $1",
					"numoutlets" : 1,
					"outlettype" : [ "" ],
					"fontname" : "Arial",
					"patching_rect" : [ 595.0, 472.0, 43.0, 18.0 ],
					"fontsize" : 12.0,
					"id" : "obj-45",
					"numinlets" : 2
				}

			}
, 			{
				"box" : 				{
					"maxclass" : "toggle",
					"numoutlets" : 1,
					"outlettype" : [ "int" ],
					"patching_rect" : [ 511.0, 264.0, 20.0, 20.0 ],
					"id" : "obj-25",
					"numinlets" : 1
				}

			}
, 			{
				"box" : 				{
					"maxclass" : "message",
					"text" : "freeze $1",
					"numoutlets" : 1,
					"outlettype" : [ "" ],
					"fontname" : "Arial",
					"patching_rect" : [ 484.0, 288.0, 61.0, 18.0 ],
					"fontsize" : 12.0,
					"id" : "obj-22",
					"numinlets" : 2
				}

			}
, 			{
				"box" : 				{
					"maxclass" : "ezdac~",
					"numoutlets" : 0,
					"patching_rect" : [ 258.0, 480.5, 45.0, 45.0 ],
					"id" : "obj-9",
					"numinlets" : 2
				}

			}
, 			{
				"box" : 				{
					"maxclass" : "bargraf~",
					"prototypename" : "no_border_gain",
					"numoutlets" : 3,
					"outlettype" : [ "float", "float", "float" ],
					"fontname" : "Helvetica",
					"border" : 0,
					"patching_rect" : [ 311.0, 326.5, 20.0, 140.0 ],
					"fontsize" : 12.0,
					"id" : "obj-7",
					"numinlets" : 2,
					"show_value" : 1
				}

			}
, 			{
				"box" : 				{
					"maxclass" : "gain~",
					"numoutlets" : 2,
					"outlettype" : [ "signal", "int" ],
					"patching_rect" : [ 292.0, 326.5, 19.0, 140.0 ],
					"id" : "obj-8",
					"numinlets" : 2
				}

			}
, 			{
				"box" : 				{
					"maxclass" : "bargraf~",
					"prototypename" : "no_border_gain",
					"numoutlets" : 3,
					"outlettype" : [ "float", "float", "float" ],
					"fontname" : "Helvetica",
					"border" : 0,
					"patching_rect" : [ 270.0, 326.5, 20.0, 140.0 ],
					"fontsize" : 12.0,
					"id" : "obj-6",
					"numinlets" : 2,
					"show_value" : 1
				}

			}
, 			{
				"box" : 				{
					"maxclass" : "gain~",
					"numoutlets" : 2,
					"outlettype" : [ "signal", "int" ],
					"patching_rect" : [ 251.0, 326.5, 19.0, 140.0 ],
					"id" : "obj-13",
					"numinlets" : 2
				}

			}
, 			{
				"box" : 				{
					"maxclass" : "newobj",
					"text" : "vst~ \"GRM Freeze Stereo\"",
					"numoutlets" : 6,
					"outlettype" : [ "signal", "signal", "", "list", "int", "" ],
					"fontname" : "Arial",
					"patching_rect" : [ 249.0, 295.0, 152.0, 20.0 ],
					"fontsize" : 12.0,
					"id" : "obj-5",
					"numinlets" : 2,
					"save" : [ "#N", "vst~", "loaduniqueid", 0, "GRM Freeze Stereo", ";" ]
				}

			}
, 			{
				"box" : 				{
					"maxclass" : "bargraf~",
					"numoutlets" : 3,
					"outlettype" : [ "float", "float", "float" ],
					"fontname" : "Arial",
					"border" : 0,
					"patching_rect" : [ 271.0, 135.0, 124.0, 14.0 ],
					"fontsize" : 12.0,
					"id" : "obj-4",
					"numinlets" : 2,
					"show_value" : 1
				}

			}
, 			{
				"box" : 				{
					"maxclass" : "toggle",
					"numoutlets" : 1,
					"outlettype" : [ "int" ],
					"patching_rect" : [ 272.0, 32.0, 20.0, 20.0 ],
					"id" : "obj-23",
					"numinlets" : 1
				}

			}
, 			{
				"box" : 				{
					"maxclass" : "message",
					"text" : "loop 1",
					"numoutlets" : 1,
					"outlettype" : [ "" ],
					"fontname" : "Arial",
					"patching_rect" : [ 338.0, 34.0, 43.0, 18.0 ],
					"fontsize" : 12.0,
					"id" : "obj-21",
					"numinlets" : 2
				}

			}
, 			{
				"box" : 				{
					"maxclass" : "message",
					"text" : "open",
					"numoutlets" : 1,
					"outlettype" : [ "" ],
					"fontname" : "Arial",
					"patching_rect" : [ 297.0, 33.0, 37.0, 18.0 ],
					"fontsize" : 12.0,
					"id" : "obj-18",
					"numinlets" : 2
				}

			}
, 			{
				"box" : 				{
					"maxclass" : "newobj",
					"text" : "p tri~",
					"numoutlets" : 1,
					"outlettype" : [ "signal" ],
					"fontname" : "Helvetica",
					"patching_rect" : [ 331.0, 82.0, 38.0, 18.0 ],
					"fontsize" : 12.0,
					"id" : "obj-20",
					"numinlets" : 1,
					"patcher" : 					{
						"fileversion" : 1,
						"rect" : [ 75.0, 119.0, 640.0, 480.0 ],
						"bglocked" : 0,
						"defrect" : [ 75.0, 119.0, 640.0, 480.0 ],
						"openrect" : [ 0.0, 0.0, 0.0, 0.0 ],
						"openinpresentation" : 0,
						"default_fontsize" : 10.0,
						"default_fontface" : 0,
						"default_fontname" : "Arial",
						"gridonopen" : 0,
						"gridsize" : [ 15.0, 15.0 ],
						"gridsnaponopen" : 0,
						"toolbarvisible" : 1,
						"boxanimatetime" : 200,
						"imprint" : 0,
						"metadata" : [  ],
						"boxes" : [ 							{
								"box" : 								{
									"maxclass" : "message",
									"text" : "$1 100",
									"numoutlets" : 1,
									"outlettype" : [ "" ],
									"fontname" : "Arial",
									"patching_rect" : [ 55.0, 70.0, 47.0, 18.0 ],
									"fontsize" : 12.0,
									"id" : "obj-15",
									"numinlets" : 2
								}

							}
, 							{
								"box" : 								{
									"maxclass" : "newobj",
									"text" : "line~",
									"numoutlets" : 2,
									"outlettype" : [ "signal", "bang" ],
									"fontname" : "Arial",
									"patching_rect" : [ 55.0, 91.0, 36.0, 20.0 ],
									"fontsize" : 12.0,
									"id" : "obj-13",
									"numinlets" : 2
								}

							}
, 							{
								"box" : 								{
									"maxclass" : "newobj",
									"text" : "tri~",
									"numoutlets" : 1,
									"outlettype" : [ "signal" ],
									"fontname" : "Arial",
									"patching_rect" : [ 55.0, 118.0, 46.0, 20.0 ],
									"fontsize" : 12.0,
									"id" : "obj-12",
									"numinlets" : 3
								}

							}
, 							{
								"box" : 								{
									"maxclass" : "inlet",
									"numoutlets" : 1,
									"outlettype" : [ "float" ],
									"patching_rect" : [ 55.0, 40.0, 25.0, 25.0 ],
									"id" : "obj-18",
									"numinlets" : 0,
									"comment" : ""
								}

							}
, 							{
								"box" : 								{
									"maxclass" : "outlet",
									"numoutlets" : 0,
									"patching_rect" : [ 55.0, 150.0, 25.0, 25.0 ],
									"id" : "obj-19",
									"numinlets" : 1,
									"comment" : ""
								}

							}
 ],
						"lines" : [ 							{
								"patchline" : 								{
									"source" : [ "obj-13", 0 ],
									"destination" : [ "obj-12", 0 ],
									"hidden" : 0,
									"midpoints" : [  ]
								}

							}
, 							{
								"patchline" : 								{
									"source" : [ "obj-15", 0 ],
									"destination" : [ "obj-13", 0 ],
									"hidden" : 0,
									"midpoints" : [  ]
								}

							}
, 							{
								"patchline" : 								{
									"source" : [ "obj-18", 0 ],
									"destination" : [ "obj-15", 0 ],
									"hidden" : 0,
									"midpoints" : [  ]
								}

							}
, 							{
								"patchline" : 								{
									"source" : [ "obj-12", 0 ],
									"destination" : [ "obj-19", 0 ],
									"hidden" : 0,
									"midpoints" : [  ]
								}

							}
 ]
					}
,
					"saved_object_attributes" : 					{
						"globalpatchername" : "",
						"default_fontname" : "Arial",
						"default_fontsize" : 10.0,
						"fontname" : "Arial",
						"fontface" : 0,
						"fontsize" : 10.0,
						"default_fontface" : 0
					}

				}

			}
, 			{
				"box" : 				{
					"maxclass" : "flonum",
					"numoutlets" : 2,
					"outlettype" : [ "float", "bang" ],
					"fontname" : "Helvetica",
					"patching_rect" : [ 331.0, 56.0, 54.0, 18.0 ],
					"fontsize" : 12.0,
					"id" : "obj-17",
					"numinlets" : 1
				}

			}
, 			{
				"box" : 				{
					"maxclass" : "umenu",
					"numoutlets" : 3,
					"arrowbgcolor" : [ 0.266667, 0.266667, 0.266667, 0.0 ],
					"outlettype" : [ "int", "", "" ],
					"framecolor" : [ 0.066667, 0.066667, 0.066667, 0.0 ],
					"arrowframe" : 0,
					"fontname" : "Helvetica",
					"items" : [ "off", ",", "soundfile", ",", "tri", ",", "adc" ],
					"bgcolor2" : [ 1.0, 1.0, 1.0, 1.0 ],
					"types" : [  ],
					"patching_rect" : [ 181.0, 69.0, 83.0, 18.0 ],
					"fontsize" : 12.0,
					"id" : "obj-1",
					"numinlets" : 1
				}

			}
, 			{
				"box" : 				{
					"maxclass" : "newobj",
					"text" : "selector~ 3 1",
					"numoutlets" : 1,
					"outlettype" : [ "signal" ],
					"fontname" : "Helvetica",
					"patching_rect" : [ 249.0, 105.0, 142.0, 18.0 ],
					"fontsize" : 12.0,
					"id" : "obj-3",
					"numinlets" : 4
				}

			}
, 			{
				"box" : 				{
					"maxclass" : "newobj",
					"text" : "adc~",
					"numoutlets" : 2,
					"outlettype" : [ "signal", "signal" ],
					"fontname" : "Helvetica",
					"patching_rect" : [ 372.0, 82.0, 37.0, 18.0 ],
					"fontsize" : 12.0,
					"id" : "obj-12",
					"numinlets" : 1
				}

			}
, 			{
				"box" : 				{
					"maxclass" : "newobj",
					"text" : "sfplay~",
					"numoutlets" : 2,
					"outlettype" : [ "signal", "bang" ],
					"fontname" : "Helvetica",
					"patching_rect" : [ 272.0, 61.0, 49.0, 18.0 ],
					"fontsize" : 12.0,
					"id" : "obj-15",
					"numinlets" : 2,
					"save" : [ "#N", "sfplay~", "", 1, 120960, 0, "", ";" ]
				}

			}
, 			{
				"box" : 				{
					"maxclass" : "message",
					"text" : "plug",
					"numoutlets" : 1,
					"outlettype" : [ "" ],
					"fontname" : "Arial",
					"patching_rect" : [ 172.0, 255.0, 33.0, 18.0 ],
					"fontsize" : 12.0,
					"id" : "obj-10",
					"numinlets" : 2
				}

			}
, 			{
				"box" : 				{
					"maxclass" : "message",
					"text" : "open",
					"numoutlets" : 1,
					"outlettype" : [ "" ],
					"fontname" : "Arial",
					"patching_rect" : [ 208.0, 255.0, 37.0, 18.0 ],
					"fontsize" : 12.0,
					"id" : "obj-11",
					"numinlets" : 2
				}

			}
, 			{
				"box" : 				{
					"maxclass" : "message",
					"text" : "wet/dry $1",
					"numoutlets" : 1,
					"outlettype" : [ "" ],
					"fontname" : "Arial",
					"patching_rect" : [ 861.0, 528.0, 66.0, 18.0 ],
					"fontsize" : 12.0,
					"id" : "obj-49",
					"numinlets" : 2
				}

			}
, 			{
				"box" : 				{
					"maxclass" : "message",
					"text" : "params",
					"numoutlets" : 1,
					"outlettype" : [ "" ],
					"fontname" : "Arial",
					"patching_rect" : [ 343.0, 265.0, 50.0, 18.0 ],
					"fontsize" : 12.0,
					"id" : "obj-55",
					"numinlets" : 2
				}

			}
 ],
		"lines" : [ 			{
				"patchline" : 				{
					"source" : [ "obj-70", 0 ],
					"destination" : [ "obj-31", 0 ],
					"hidden" : 0,
					"midpoints" : [  ]
				}

			}
, 			{
				"patchline" : 				{
					"source" : [ "obj-68", 0 ],
					"destination" : [ "obj-32", 0 ],
					"hidden" : 0,
					"midpoints" : [  ]
				}

			}
, 			{
				"patchline" : 				{
					"source" : [ "obj-45", 0 ],
					"destination" : [ "obj-61", 0 ],
					"hidden" : 0,
					"midpoints" : [  ]
				}

			}
, 			{
				"patchline" : 				{
					"source" : [ "obj-49", 0 ],
					"destination" : [ "obj-58", 0 ],
					"hidden" : 0,
					"midpoints" : [  ]
				}

			}
, 			{
				"patchline" : 				{
					"source" : [ "obj-56", 0 ],
					"destination" : [ "obj-26", 0 ],
					"hidden" : 0,
					"midpoints" : [  ]
				}

			}
, 			{
				"patchline" : 				{
					"source" : [ "obj-57", 0 ],
					"destination" : [ "obj-52", 0 ],
					"hidden" : 0,
					"midpoints" : [  ]
				}

			}
, 			{
				"patchline" : 				{
					"source" : [ "obj-55", 0 ],
					"destination" : [ "obj-5", 0 ],
					"hidden" : 0,
					"midpoints" : [  ]
				}

			}
, 			{
				"patchline" : 				{
					"source" : [ "obj-52", 0 ],
					"destination" : [ "obj-49", 0 ],
					"hidden" : 0,
					"midpoints" : [  ]
				}

			}
, 			{
				"patchline" : 				{
					"source" : [ "obj-33", 0 ],
					"destination" : [ "obj-5", 0 ],
					"hidden" : 0,
					"midpoints" : [  ]
				}

			}
, 			{
				"patchline" : 				{
					"source" : [ "obj-24", 0 ],
					"destination" : [ "obj-2", 0 ],
					"hidden" : 0,
					"midpoints" : [  ]
				}

			}
, 			{
				"patchline" : 				{
					"source" : [ "obj-32", 0 ],
					"destination" : [ "obj-2", 2 ],
					"hidden" : 0,
					"midpoints" : [  ]
				}

			}
, 			{
				"patchline" : 				{
					"source" : [ "obj-60", 0 ],
					"destination" : [ "obj-2", 1 ],
					"hidden" : 0,
					"midpoints" : [  ]
				}

			}
, 			{
				"patchline" : 				{
					"source" : [ "obj-2", 0 ],
					"destination" : [ "obj-14", 0 ],
					"hidden" : 0,
					"midpoints" : [  ]
				}

			}
, 			{
				"patchline" : 				{
					"source" : [ "obj-3", 0 ],
					"destination" : [ "obj-5", 0 ],
					"hidden" : 0,
					"midpoints" : [  ]
				}

			}
, 			{
				"patchline" : 				{
					"source" : [ "obj-3", 0 ],
					"destination" : [ "obj-5", 1 ],
					"hidden" : 0,
					"midpoints" : [ 258.5, 272.0, 391.5, 272.0 ]
				}

			}
, 			{
				"patchline" : 				{
					"source" : [ "obj-10", 0 ],
					"destination" : [ "obj-5", 0 ],
					"hidden" : 0,
					"midpoints" : [  ]
				}

			}
, 			{
				"patchline" : 				{
					"source" : [ "obj-11", 0 ],
					"destination" : [ "obj-5", 0 ],
					"hidden" : 0,
					"midpoints" : [  ]
				}

			}
, 			{
				"patchline" : 				{
					"source" : [ "obj-22", 0 ],
					"destination" : [ "obj-5", 0 ],
					"hidden" : 0,
					"midpoints" : [  ]
				}

			}
, 			{
				"patchline" : 				{
					"source" : [ "obj-5", 0 ],
					"destination" : [ "obj-13", 0 ],
					"hidden" : 0,
					"midpoints" : [  ]
				}

			}
, 			{
				"patchline" : 				{
					"source" : [ "obj-5", 1 ],
					"destination" : [ "obj-8", 0 ],
					"hidden" : 0,
					"midpoints" : [  ]
				}

			}
, 			{
				"patchline" : 				{
					"source" : [ "obj-91", 0 ],
					"destination" : [ "obj-44", 0 ],
					"hidden" : 0,
					"midpoints" : [  ]
				}

			}
, 			{
				"patchline" : 				{
					"source" : [ "obj-71", 0 ],
					"destination" : [ "obj-45", 0 ],
					"hidden" : 0,
					"midpoints" : [  ]
				}

			}
, 			{
				"patchline" : 				{
					"source" : [ "obj-44", 0 ],
					"destination" : [ "obj-71", 0 ],
					"hidden" : 0,
					"midpoints" : [  ]
				}

			}
, 			{
				"patchline" : 				{
					"source" : [ "obj-71", 0 ],
					"destination" : [ "obj-88", 0 ],
					"hidden" : 0,
					"midpoints" : [  ]
				}

			}
, 			{
				"patchline" : 				{
					"source" : [ "obj-86", 0 ],
					"destination" : [ "obj-84", 0 ],
					"hidden" : 0,
					"midpoints" : [  ]
				}

			}
, 			{
				"patchline" : 				{
					"source" : [ "obj-84", 0 ],
					"destination" : [ "obj-25", 0 ],
					"hidden" : 0,
					"midpoints" : [  ]
				}

			}
, 			{
				"patchline" : 				{
					"source" : [ "obj-50", 1 ],
					"destination" : [ "obj-84", 1 ],
					"hidden" : 0,
					"midpoints" : [  ]
				}

			}
, 			{
				"patchline" : 				{
					"source" : [ "obj-69", 0 ],
					"destination" : [ "obj-84", 1 ],
					"hidden" : 0,
					"midpoints" : [  ]
				}

			}
, 			{
				"patchline" : 				{
					"source" : [ "obj-50", 0 ],
					"destination" : [ "obj-69", 0 ],
					"hidden" : 0,
					"midpoints" : [  ]
				}

			}
, 			{
				"patchline" : 				{
					"source" : [ "obj-25", 0 ],
					"destination" : [ "obj-22", 0 ],
					"hidden" : 0,
					"midpoints" : [  ]
				}

			}
, 			{
				"patchline" : 				{
					"source" : [ "obj-13", 0 ],
					"destination" : [ "obj-6", 0 ],
					"hidden" : 1,
					"midpoints" : [  ]
				}

			}
, 			{
				"patchline" : 				{
					"source" : [ "obj-8", 0 ],
					"destination" : [ "obj-7", 0 ],
					"hidden" : 1,
					"midpoints" : [  ]
				}

			}
, 			{
				"patchline" : 				{
					"source" : [ "obj-13", 0 ],
					"destination" : [ "obj-9", 0 ],
					"hidden" : 0,
					"midpoints" : [  ]
				}

			}
, 			{
				"patchline" : 				{
					"source" : [ "obj-8", 0 ],
					"destination" : [ "obj-9", 1 ],
					"hidden" : 0,
					"midpoints" : [  ]
				}

			}
, 			{
				"patchline" : 				{
					"source" : [ "obj-13", 1 ],
					"destination" : [ "obj-8", 0 ],
					"hidden" : 1,
					"midpoints" : [  ]
				}

			}
, 			{
				"patchline" : 				{
					"source" : [ "obj-12", 0 ],
					"destination" : [ "obj-3", 3 ],
					"hidden" : 0,
					"midpoints" : [  ]
				}

			}
, 			{
				"patchline" : 				{
					"source" : [ "obj-17", 0 ],
					"destination" : [ "obj-20", 0 ],
					"hidden" : 0,
					"midpoints" : [  ]
				}

			}
, 			{
				"patchline" : 				{
					"source" : [ "obj-20", 0 ],
					"destination" : [ "obj-3", 2 ],
					"hidden" : 0,
					"midpoints" : [  ]
				}

			}
, 			{
				"patchline" : 				{
					"source" : [ "obj-15", 0 ],
					"destination" : [ "obj-3", 1 ],
					"hidden" : 0,
					"midpoints" : [  ]
				}

			}
, 			{
				"patchline" : 				{
					"source" : [ "obj-21", 0 ],
					"destination" : [ "obj-15", 0 ],
					"hidden" : 0,
					"midpoints" : [  ]
				}

			}
, 			{
				"patchline" : 				{
					"source" : [ "obj-18", 0 ],
					"destination" : [ "obj-15", 0 ],
					"hidden" : 0,
					"midpoints" : [  ]
				}

			}
, 			{
				"patchline" : 				{
					"source" : [ "obj-23", 0 ],
					"destination" : [ "obj-15", 0 ],
					"hidden" : 0,
					"midpoints" : [  ]
				}

			}
, 			{
				"patchline" : 				{
					"source" : [ "obj-1", 0 ],
					"destination" : [ "obj-3", 0 ],
					"hidden" : 0,
					"midpoints" : [ 190.5, 95.0, 258.5, 95.0 ]
				}

			}
, 			{
				"patchline" : 				{
					"source" : [ "obj-3", 0 ],
					"destination" : [ "obj-4", 0 ],
					"hidden" : 0,
					"midpoints" : [  ]
				}

			}
, 			{
				"patchline" : 				{
					"source" : [ "obj-14", 0 ],
					"destination" : [ "obj-91", 0 ],
					"hidden" : 0,
					"midpoints" : [  ]
				}

			}
, 			{
				"patchline" : 				{
					"source" : [ "obj-107", 0 ],
					"destination" : [ "obj-19", 0 ],
					"hidden" : 0,
					"midpoints" : [  ]
				}

			}
, 			{
				"patchline" : 				{
					"source" : [ "obj-3", 0 ],
					"destination" : [ "obj-107", 0 ],
					"hidden" : 0,
					"midpoints" : [  ]
				}

			}
, 			{
				"patchline" : 				{
					"source" : [ "obj-28", 0 ],
					"destination" : [ "obj-69", 1 ],
					"hidden" : 0,
					"midpoints" : [  ]
				}

			}
, 			{
				"patchline" : 				{
					"source" : [ "obj-30", 0 ],
					"destination" : [ "obj-31", 1 ],
					"hidden" : 0,
					"midpoints" : [  ]
				}

			}
, 			{
				"patchline" : 				{
					"source" : [ "obj-31", 0 ],
					"destination" : [ "obj-50", 0 ],
					"hidden" : 0,
					"midpoints" : [  ]
				}

			}
, 			{
				"patchline" : 				{
					"source" : [ "obj-37", 0 ],
					"destination" : [ "obj-34", 2 ],
					"hidden" : 0,
					"midpoints" : [  ]
				}

			}
, 			{
				"patchline" : 				{
					"source" : [ "obj-36", 0 ],
					"destination" : [ "obj-34", 1 ],
					"hidden" : 0,
					"midpoints" : [  ]
				}

			}
, 			{
				"patchline" : 				{
					"source" : [ "obj-34", 0 ],
					"destination" : [ "obj-107", 0 ],
					"hidden" : 0,
					"midpoints" : [  ]
				}

			}
, 			{
				"patchline" : 				{
					"source" : [ "obj-39", 0 ],
					"destination" : [ "obj-32", 0 ],
					"hidden" : 0,
					"midpoints" : [  ]
				}

			}
, 			{
				"patchline" : 				{
					"source" : [ "obj-40", 0 ],
					"destination" : [ "obj-32", 0 ],
					"hidden" : 0,
					"midpoints" : [  ]
				}

			}
, 			{
				"patchline" : 				{
					"source" : [ "obj-41", 0 ],
					"destination" : [ "obj-32", 0 ],
					"hidden" : 0,
					"midpoints" : [  ]
				}

			}
, 			{
				"patchline" : 				{
					"source" : [ "obj-42", 0 ],
					"destination" : [ "obj-32", 0 ],
					"hidden" : 0,
					"midpoints" : [  ]
				}

			}
, 			{
				"patchline" : 				{
					"source" : [ "obj-43", 0 ],
					"destination" : [ "obj-32", 0 ],
					"hidden" : 0,
					"midpoints" : [  ]
				}

			}
, 			{
				"patchline" : 				{
					"source" : [ "obj-19", 0 ],
					"destination" : [ "obj-47", 1 ],
					"hidden" : 0,
					"midpoints" : [  ]
				}

			}
, 			{
				"patchline" : 				{
					"source" : [ "obj-19", 0 ],
					"destination" : [ "obj-47", 0 ],
					"hidden" : 0,
					"midpoints" : [  ]
				}

			}
, 			{
				"patchline" : 				{
					"source" : [ "obj-47", 0 ],
					"destination" : [ "obj-54", 0 ],
					"hidden" : 0,
					"midpoints" : [  ]
				}

			}
, 			{
				"patchline" : 				{
					"source" : [ "obj-54", 1 ],
					"destination" : [ "obj-53", 0 ],
					"hidden" : 0,
					"midpoints" : [  ]
				}

			}
, 			{
				"patchline" : 				{
					"source" : [ "obj-54", 0 ],
					"destination" : [ "obj-48", 0 ],
					"hidden" : 0,
					"midpoints" : [  ]
				}

			}
, 			{
				"patchline" : 				{
					"source" : [ "obj-48", 0 ],
					"destination" : [ "obj-53", 1 ],
					"hidden" : 0,
					"midpoints" : [  ]
				}

			}
, 			{
				"patchline" : 				{
					"source" : [ "obj-48", 0 ],
					"destination" : [ "obj-59", 0 ],
					"hidden" : 0,
					"midpoints" : [  ]
				}

			}
, 			{
				"patchline" : 				{
					"source" : [ "obj-59", 0 ],
					"destination" : [ "obj-60", 0 ],
					"hidden" : 0,
					"midpoints" : [  ]
				}

			}
, 			{
				"patchline" : 				{
					"source" : [ "obj-53", 0 ],
					"destination" : [ "obj-48", 1 ],
					"hidden" : 0,
					"midpoints" : [  ]
				}

			}
, 			{
				"patchline" : 				{
					"source" : [ "obj-62", 0 ],
					"destination" : [ "obj-63", 0 ],
					"hidden" : 0,
					"midpoints" : [  ]
				}

			}
, 			{
				"patchline" : 				{
					"source" : [ "obj-63", 1 ],
					"destination" : [ "obj-60", 1 ],
					"hidden" : 0,
					"midpoints" : [  ]
				}

			}
, 			{
				"patchline" : 				{
					"source" : [ "obj-63", 0 ],
					"destination" : [ "obj-60", 0 ],
					"hidden" : 0,
					"midpoints" : [  ]
				}

			}
, 			{
				"patchline" : 				{
					"source" : [ "obj-65", 0 ],
					"destination" : [ "obj-62", 0 ],
					"hidden" : 0,
					"midpoints" : [  ]
				}

			}
, 			{
				"patchline" : 				{
					"source" : [ "obj-67", 0 ],
					"destination" : [ "obj-65", 1 ],
					"hidden" : 0,
					"midpoints" : [  ]
				}

			}
, 			{
				"patchline" : 				{
					"source" : [ "obj-64", 0 ],
					"destination" : [ "obj-65", 0 ],
					"hidden" : 0,
					"midpoints" : [  ]
				}

			}
, 			{
				"patchline" : 				{
					"source" : [ "obj-72", 0 ],
					"destination" : [ "obj-53", 0 ],
					"hidden" : 0,
					"midpoints" : [  ]
				}

			}
, 			{
				"patchline" : 				{
					"source" : [ "obj-74", 0 ],
					"destination" : [ "obj-64", 2 ],
					"hidden" : 0,
					"midpoints" : [  ]
				}

			}
 ]
	}

}
