{
	"patcher" : 	{
		"fileversion" : 1,
		"rect" : [ 443.0, 44.0, 546.0, 692.0 ],
		"bglocked" : 0,
		"defrect" : [ 443.0, 44.0, 546.0, 692.0 ],
		"openrect" : [ 0.0, 0.0, 0.0, 0.0 ],
		"openinpresentation" : 0,
		"default_fontsize" : 12.0,
		"default_fontface" : 0,
		"default_fontname" : "Arial",
		"gridonopen" : 0,
		"gridsize" : [ 10.0, 10.0 ],
		"gridsnaponopen" : 0,
		"toolbarvisible" : 1,
		"boxanimatetime" : 200,
		"imprint" : 0,
		"metadata" : [  ],
		"boxes" : [ 			{
				"box" : 				{
					"maxclass" : "newobj",
					"text" : "in 15",
					"fontname" : "Arial",
					"patching_rect" : [ 263.0, 456.0, 37.0, 20.0 ],
					"fontsize" : 12.0,
					"id" : "obj-3",
					"numinlets" : 1,
					"numoutlets" : 1,
					"outlettype" : [ "" ],
					"saved_object_attributes" : 					{
						"attr_comment" : ""
					}

				}

			}
, 			{
				"box" : 				{
					"maxclass" : "newobj",
					"text" : "in 14",
					"fontname" : "Arial",
					"patching_rect" : [ 226.0, 456.0, 37.0, 20.0 ],
					"fontsize" : 12.0,
					"id" : "obj-56",
					"numinlets" : 1,
					"numoutlets" : 1,
					"outlettype" : [ "" ],
					"saved_object_attributes" : 					{

					}

				}

			}
, 			{
				"box" : 				{
					"maxclass" : "newobj",
					"text" : "in 13",
					"fontname" : "Arial",
					"patching_rect" : [ 190.0, 456.0, 37.0, 20.0 ],
					"fontsize" : 12.0,
					"id" : "obj-55",
					"numinlets" : 1,
					"numoutlets" : 1,
					"outlettype" : [ "" ],
					"saved_object_attributes" : 					{

					}

				}

			}
, 			{
				"box" : 				{
					"maxclass" : "newobj",
					"text" : "in 12",
					"fontname" : "Arial",
					"patching_rect" : [ 153.0, 456.0, 37.0, 20.0 ],
					"fontsize" : 12.0,
					"id" : "obj-54",
					"numinlets" : 1,
					"numoutlets" : 1,
					"outlettype" : [ "" ],
					"saved_object_attributes" : 					{

					}

				}

			}
, 			{
				"box" : 				{
					"maxclass" : "newobj",
					"text" : "p pan",
					"fontname" : "Arial",
					"patching_rect" : [ 80.0, 481.0, 201.5, 20.0 ],
					"fontsize" : 12.0,
					"id" : "obj-53",
					"numinlets" : 6,
					"numoutlets" : 2,
					"outlettype" : [ "signal", "signal" ],
					"patcher" : 					{
						"fileversion" : 1,
						"rect" : [ 25.0, 69.0, 357.0, 423.0 ],
						"bglocked" : 0,
						"defrect" : [ 25.0, 69.0, 357.0, 423.0 ],
						"openrect" : [ 0.0, 0.0, 0.0, 0.0 ],
						"openinpresentation" : 0,
						"default_fontsize" : 12.0,
						"default_fontface" : 0,
						"default_fontname" : "Arial",
						"gridonopen" : 0,
						"gridsize" : [ 10.0, 10.0 ],
						"gridsnaponopen" : 0,
						"toolbarvisible" : 1,
						"boxanimatetime" : 200,
						"imprint" : 0,
						"metadata" : [  ],
						"boxes" : [ 							{
								"box" : 								{
									"maxclass" : "inlet",
									"patching_rect" : [ 136.0, 20.0, 25.0, 25.0 ],
									"id" : "obj-15",
									"numinlets" : 0,
									"numoutlets" : 1,
									"outlettype" : [ "" ],
									"comment" : ""
								}

							}
, 							{
								"box" : 								{
									"maxclass" : "newobj",
									"text" : "+~",
									"fontname" : "Arial",
									"patching_rect" : [ 119.0, 188.0, 69.5, 20.0 ],
									"fontsize" : 12.0,
									"id" : "obj-8",
									"numinlets" : 2,
									"numoutlets" : 1,
									"outlettype" : [ "signal" ]
								}

							}
, 							{
								"box" : 								{
									"maxclass" : "newobj",
									"text" : "*~ 0.",
									"fontname" : "Arial",
									"patching_rect" : [ 119.0, 161.0, 36.0, 20.0 ],
									"fontsize" : 12.0,
									"id" : "obj-7",
									"numinlets" : 2,
									"numoutlets" : 1,
									"outlettype" : [ "signal" ]
								}

							}
, 							{
								"box" : 								{
									"maxclass" : "inlet",
									"patching_rect" : [ 104.0, 20.0, 25.0, 25.0 ],
									"id" : "obj-3",
									"numinlets" : 0,
									"numoutlets" : 1,
									"outlettype" : [ "signal" ],
									"comment" : ""
								}

							}
, 							{
								"box" : 								{
									"maxclass" : "newobj",
									"text" : "rand~ 10",
									"fontname" : "Arial",
									"patching_rect" : [ 49.0, 83.0, 58.0, 20.0 ],
									"fontsize" : 12.0,
									"id" : "obj-2",
									"numinlets" : 1,
									"numoutlets" : 1,
									"outlettype" : [ "signal" ]
								}

							}
, 							{
								"box" : 								{
									"maxclass" : "newobj",
									"text" : "sah~ 0.5",
									"fontname" : "Arial",
									"patching_rect" : [ 49.0, 110.0, 74.0, 20.0 ],
									"fontsize" : 12.0,
									"id" : "obj-1",
									"numinlets" : 2,
									"numoutlets" : 1,
									"outlettype" : [ "signal" ]
								}

							}
, 							{
								"box" : 								{
									"maxclass" : "message",
									"text" : "$1 50",
									"fontname" : "Arial",
									"patching_rect" : [ 170.0, 49.0, 41.0, 18.0 ],
									"fontsize" : 12.0,
									"id" : "obj-34",
									"numinlets" : 2,
									"numoutlets" : 1,
									"outlettype" : [ "" ]
								}

							}
, 							{
								"box" : 								{
									"maxclass" : "newobj",
									"text" : "line~ 1",
									"fontname" : "Arial",
									"patching_rect" : [ 170.0, 76.0, 46.0, 20.0 ],
									"fontsize" : 12.0,
									"id" : "obj-29",
									"numinlets" : 2,
									"numoutlets" : 2,
									"outlettype" : [ "signal", "bang" ]
								}

							}
, 							{
								"box" : 								{
									"maxclass" : "newobj",
									"text" : "cycle~",
									"fontname" : "Arial",
									"patching_rect" : [ 170.0, 130.0, 45.0, 20.0 ],
									"fontsize" : 12.0,
									"id" : "obj-122",
									"numinlets" : 2,
									"numoutlets" : 1,
									"outlettype" : [ "signal" ]
								}

							}
, 							{
								"box" : 								{
									"maxclass" : "newobj",
									"text" : "p freq_stab",
									"fontname" : "Arial",
									"patching_rect" : [ 170.0, 103.0, 71.0, 20.0 ],
									"fontsize" : 12.0,
									"id" : "obj-11",
									"numinlets" : 2,
									"numoutlets" : 1,
									"outlettype" : [ "signal" ],
									"patcher" : 									{
										"fileversion" : 1,
										"rect" : [ 25.0, 69.0, 640.0, 480.0 ],
										"bglocked" : 0,
										"defrect" : [ 25.0, 69.0, 640.0, 480.0 ],
										"openrect" : [ 0.0, 0.0, 0.0, 0.0 ],
										"openinpresentation" : 0,
										"default_fontsize" : 12.0,
										"default_fontface" : 0,
										"default_fontname" : "Arial",
										"gridonopen" : 0,
										"gridsize" : [ 10.0, 10.0 ],
										"gridsnaponopen" : 0,
										"toolbarvisible" : 1,
										"boxanimatetime" : 200,
										"imprint" : 0,
										"metadata" : [  ],
										"boxes" : [ 											{
												"box" : 												{
													"maxclass" : "newobj",
													"text" : "*~ 0.",
													"fontname" : "Arial",
													"patching_rect" : [ 78.0, 183.0, 36.0, 20.0 ],
													"fontsize" : 12.0,
													"id" : "obj-85",
													"numinlets" : 2,
													"numoutlets" : 1,
													"outlettype" : [ "signal" ]
												}

											}
, 											{
												"box" : 												{
													"maxclass" : "newobj",
													"text" : "*~",
													"fontname" : "Arial",
													"patching_rect" : [ 64.0, 209.0, 32.5, 20.0 ],
													"fontsize" : 12.0,
													"id" : "obj-67",
													"numinlets" : 2,
													"numoutlets" : 1,
													"outlettype" : [ "signal" ]
												}

											}
, 											{
												"box" : 												{
													"maxclass" : "newobj",
													"text" : "rand~ 10",
													"fontname" : "Arial",
													"patching_rect" : [ 64.0, 158.0, 58.0, 20.0 ],
													"fontsize" : 12.0,
													"id" : "obj-69",
													"numinlets" : 1,
													"numoutlets" : 1,
													"outlettype" : [ "signal" ]
												}

											}
, 											{
												"box" : 												{
													"maxclass" : "newobj",
													"text" : "+~",
													"fontname" : "Arial",
													"patching_rect" : [ 50.0, 238.0, 32.5, 20.0 ],
													"fontsize" : 12.0,
													"id" : "obj-70",
													"numinlets" : 2,
													"numoutlets" : 1,
													"outlettype" : [ "signal" ]
												}

											}
, 											{
												"box" : 												{
													"maxclass" : "inlet",
													"patching_rect" : [ 50.0, 70.0, 25.0, 25.0 ],
													"id" : "obj-104",
													"numinlets" : 0,
													"numoutlets" : 1,
													"outlettype" : [ "signal" ],
													"comment" : ""
												}

											}
, 											{
												"box" : 												{
													"maxclass" : "inlet",
													"patching_rect" : [ 95.0, 70.0, 25.0, 25.0 ],
													"id" : "obj-105",
													"numinlets" : 0,
													"numoutlets" : 1,
													"outlettype" : [ "" ],
													"comment" : ""
												}

											}
, 											{
												"box" : 												{
													"maxclass" : "outlet",
													"patching_rect" : [ 50.0, 263.0, 25.0, 25.0 ],
													"id" : "obj-106",
													"numinlets" : 1,
													"numoutlets" : 0,
													"comment" : ""
												}

											}
 ],
										"lines" : [ 											{
												"patchline" : 												{
													"source" : [ "obj-104", 0 ],
													"destination" : [ "obj-85", 0 ],
													"hidden" : 0,
													"midpoints" : [ 59.5, 120.0, 87.5, 120.0 ]
												}

											}
, 											{
												"patchline" : 												{
													"source" : [ "obj-104", 0 ],
													"destination" : [ "obj-70", 0 ],
													"hidden" : 0,
													"midpoints" : [  ]
												}

											}
, 											{
												"patchline" : 												{
													"source" : [ "obj-105", 0 ],
													"destination" : [ "obj-85", 1 ],
													"hidden" : 0,
													"midpoints" : [  ]
												}

											}
, 											{
												"patchline" : 												{
													"source" : [ "obj-85", 0 ],
													"destination" : [ "obj-67", 1 ],
													"hidden" : 0,
													"midpoints" : [  ]
												}

											}
, 											{
												"patchline" : 												{
													"source" : [ "obj-67", 0 ],
													"destination" : [ "obj-70", 1 ],
													"hidden" : 0,
													"midpoints" : [  ]
												}

											}
, 											{
												"patchline" : 												{
													"source" : [ "obj-69", 0 ],
													"destination" : [ "obj-67", 0 ],
													"hidden" : 0,
													"midpoints" : [  ]
												}

											}
, 											{
												"patchline" : 												{
													"source" : [ "obj-70", 0 ],
													"destination" : [ "obj-106", 0 ],
													"hidden" : 0,
													"midpoints" : [  ]
												}

											}
 ]
									}
,
									"saved_object_attributes" : 									{
										"fontname" : "Arial",
										"default_fontface" : 0,
										"default_fontname" : "Arial",
										"fontface" : 0,
										"fontsize" : 12.0,
										"default_fontsize" : 12.0,
										"globalpatchername" : ""
									}

								}

							}
, 							{
								"box" : 								{
									"maxclass" : "inlet",
									"patching_rect" : [ 13.0, 20.0, 25.0, 25.0 ],
									"id" : "obj-47",
									"numinlets" : 0,
									"numoutlets" : 1,
									"outlettype" : [ "signal" ],
									"comment" : ""
								}

							}
, 							{
								"box" : 								{
									"maxclass" : "inlet",
									"patching_rect" : [ 222.0, 20.0, 25.0, 25.0 ],
									"id" : "obj-48",
									"numinlets" : 0,
									"numoutlets" : 1,
									"outlettype" : [ "" ],
									"comment" : ""
								}

							}
, 							{
								"box" : 								{
									"maxclass" : "inlet",
									"patching_rect" : [ 259.0, 20.0, 25.0, 25.0 ],
									"id" : "obj-49",
									"numinlets" : 0,
									"numoutlets" : 1,
									"outlettype" : [ "" ],
									"comment" : ""
								}

							}
, 							{
								"box" : 								{
									"maxclass" : "inlet",
									"patching_rect" : [ 170.0, 20.0, 25.0, 25.0 ],
									"id" : "obj-50",
									"numinlets" : 0,
									"numoutlets" : 1,
									"outlettype" : [ "" ],
									"comment" : ""
								}

							}
, 							{
								"box" : 								{
									"maxclass" : "outlet",
									"patching_rect" : [ 13.0, 365.5, 25.0, 25.0 ],
									"id" : "obj-51",
									"numinlets" : 1,
									"numoutlets" : 0,
									"comment" : ""
								}

							}
, 							{
								"box" : 								{
									"maxclass" : "outlet",
									"patching_rect" : [ 64.0, 365.5, 25.0, 25.0 ],
									"id" : "obj-52",
									"numinlets" : 1,
									"numoutlets" : 0,
									"comment" : ""
								}

							}
, 							{
								"box" : 								{
									"maxclass" : "message",
									"text" : "$1 10",
									"fontname" : "Arial",
									"patching_rect" : [ 259.0, 50.0, 41.0, 18.0 ],
									"fontsize" : 12.0,
									"id" : "obj-21",
									"numinlets" : 2,
									"numoutlets" : 1,
									"outlettype" : [ "" ]
								}

							}
, 							{
								"box" : 								{
									"maxclass" : "newobj",
									"text" : "line~",
									"fontname" : "Arial",
									"patching_rect" : [ 259.0, 80.0, 36.0, 20.0 ],
									"fontsize" : 12.0,
									"id" : "obj-19",
									"numinlets" : 2,
									"numoutlets" : 2,
									"outlettype" : [ "signal", "bang" ]
								}

							}
, 							{
								"box" : 								{
									"maxclass" : "newobj",
									"text" : "*~ 1.",
									"fontname" : "Arial",
									"patching_rect" : [ 170.0, 161.0, 36.0, 20.0 ],
									"fontsize" : 12.0,
									"id" : "obj-4",
									"numinlets" : 2,
									"numoutlets" : 1,
									"outlettype" : [ "signal" ]
								}

							}
, 							{
								"box" : 								{
									"maxclass" : "newobj",
									"text" : "*~",
									"fontname" : "Arial",
									"patching_rect" : [ 64.0, 339.0, 32.5, 20.0 ],
									"fontsize" : 12.0,
									"id" : "obj-6",
									"numinlets" : 2,
									"numoutlets" : 1,
									"outlettype" : [ "signal" ]
								}

							}
, 							{
								"box" : 								{
									"maxclass" : "newobj",
									"text" : "*~",
									"fontname" : "Arial",
									"patching_rect" : [ 13.0, 339.0, 32.5, 20.0 ],
									"fontsize" : 12.0,
									"id" : "obj-5",
									"numinlets" : 2,
									"numoutlets" : 1,
									"outlettype" : [ "signal" ]
								}

							}
, 							{
								"box" : 								{
									"maxclass" : "newobj",
									"text" : "cos~",
									"fontname" : "Arial",
									"patching_rect" : [ 27.0, 287.0, 36.0, 20.0 ],
									"fontsize" : 12.0,
									"id" : "obj-9",
									"numinlets" : 1,
									"numoutlets" : 1,
									"outlettype" : [ "signal" ]
								}

							}
, 							{
								"box" : 								{
									"maxclass" : "newobj",
									"text" : "cos~",
									"fontname" : "Arial",
									"patching_rect" : [ 119.0, 305.0, 36.0, 20.0 ],
									"fontsize" : 12.0,
									"id" : "obj-10",
									"numinlets" : 1,
									"numoutlets" : 1,
									"outlettype" : [ "signal" ]
								}

							}
, 							{
								"box" : 								{
									"maxclass" : "newobj",
									"text" : "+~ 0.75",
									"fontname" : "Arial",
									"patching_rect" : [ 119.0, 277.0, 51.0, 20.0 ],
									"fontsize" : 12.0,
									"id" : "obj-12",
									"numinlets" : 2,
									"numoutlets" : 1,
									"outlettype" : [ "signal" ]
								}

							}
, 							{
								"box" : 								{
									"maxclass" : "newobj",
									"text" : "*~ 0.125",
									"fontname" : "Arial",
									"patching_rect" : [ 119.0, 241.0, 56.0, 20.0 ],
									"fontsize" : 12.0,
									"id" : "obj-13",
									"numinlets" : 2,
									"numoutlets" : 1,
									"outlettype" : [ "signal" ]
								}

							}
, 							{
								"box" : 								{
									"maxclass" : "newobj",
									"text" : "+~ 1.",
									"fontname" : "Arial",
									"patching_rect" : [ 119.0, 216.0, 38.0, 20.0 ],
									"fontsize" : 12.0,
									"id" : "obj-14",
									"numinlets" : 2,
									"numoutlets" : 1,
									"outlettype" : [ "signal" ]
								}

							}
 ],
						"lines" : [ 							{
								"patchline" : 								{
									"source" : [ "obj-9", 0 ],
									"destination" : [ "obj-5", 1 ],
									"hidden" : 0,
									"midpoints" : [  ]
								}

							}
, 							{
								"patchline" : 								{
									"source" : [ "obj-15", 0 ],
									"destination" : [ "obj-7", 1 ],
									"hidden" : 0,
									"midpoints" : [  ]
								}

							}
, 							{
								"patchline" : 								{
									"source" : [ "obj-8", 0 ],
									"destination" : [ "obj-14", 0 ],
									"hidden" : 0,
									"midpoints" : [  ]
								}

							}
, 							{
								"patchline" : 								{
									"source" : [ "obj-7", 0 ],
									"destination" : [ "obj-8", 0 ],
									"hidden" : 0,
									"midpoints" : [  ]
								}

							}
, 							{
								"patchline" : 								{
									"source" : [ "obj-4", 0 ],
									"destination" : [ "obj-8", 1 ],
									"hidden" : 0,
									"midpoints" : [  ]
								}

							}
, 							{
								"patchline" : 								{
									"source" : [ "obj-1", 0 ],
									"destination" : [ "obj-7", 0 ],
									"hidden" : 0,
									"midpoints" : [ 58.5, 144.0, 128.5, 144.0 ]
								}

							}
, 							{
								"patchline" : 								{
									"source" : [ "obj-3", 0 ],
									"destination" : [ "obj-1", 1 ],
									"hidden" : 0,
									"midpoints" : [  ]
								}

							}
, 							{
								"patchline" : 								{
									"source" : [ "obj-2", 0 ],
									"destination" : [ "obj-1", 0 ],
									"hidden" : 0,
									"midpoints" : [  ]
								}

							}
, 							{
								"patchline" : 								{
									"source" : [ "obj-50", 0 ],
									"destination" : [ "obj-34", 0 ],
									"hidden" : 0,
									"midpoints" : [  ]
								}

							}
, 							{
								"patchline" : 								{
									"source" : [ "obj-48", 0 ],
									"destination" : [ "obj-11", 1 ],
									"hidden" : 0,
									"midpoints" : [  ]
								}

							}
, 							{
								"patchline" : 								{
									"source" : [ "obj-34", 0 ],
									"destination" : [ "obj-29", 0 ],
									"hidden" : 0,
									"midpoints" : [  ]
								}

							}
, 							{
								"patchline" : 								{
									"source" : [ "obj-29", 0 ],
									"destination" : [ "obj-11", 0 ],
									"hidden" : 0,
									"midpoints" : [  ]
								}

							}
, 							{
								"patchline" : 								{
									"source" : [ "obj-11", 0 ],
									"destination" : [ "obj-122", 0 ],
									"hidden" : 0,
									"midpoints" : [  ]
								}

							}
, 							{
								"patchline" : 								{
									"source" : [ "obj-21", 0 ],
									"destination" : [ "obj-19", 0 ],
									"hidden" : 0,
									"midpoints" : [  ]
								}

							}
, 							{
								"patchline" : 								{
									"source" : [ "obj-19", 0 ],
									"destination" : [ "obj-4", 1 ],
									"hidden" : 0,
									"midpoints" : [ 268.5, 154.0, 196.5, 154.0 ]
								}

							}
, 							{
								"patchline" : 								{
									"source" : [ "obj-49", 0 ],
									"destination" : [ "obj-21", 0 ],
									"hidden" : 0,
									"midpoints" : [  ]
								}

							}
, 							{
								"patchline" : 								{
									"source" : [ "obj-122", 0 ],
									"destination" : [ "obj-4", 0 ],
									"hidden" : 0,
									"midpoints" : [  ]
								}

							}
, 							{
								"patchline" : 								{
									"source" : [ "obj-12", 0 ],
									"destination" : [ "obj-10", 0 ],
									"hidden" : 0,
									"midpoints" : [  ]
								}

							}
, 							{
								"patchline" : 								{
									"source" : [ "obj-10", 0 ],
									"destination" : [ "obj-6", 1 ],
									"hidden" : 0,
									"midpoints" : [ 128.5, 332.0, 87.0, 332.0 ]
								}

							}
, 							{
								"patchline" : 								{
									"source" : [ "obj-14", 0 ],
									"destination" : [ "obj-13", 0 ],
									"hidden" : 0,
									"midpoints" : [  ]
								}

							}
, 							{
								"patchline" : 								{
									"source" : [ "obj-13", 0 ],
									"destination" : [ "obj-9", 0 ],
									"hidden" : 0,
									"midpoints" : [ 128.5, 270.0, 36.5, 270.0 ]
								}

							}
, 							{
								"patchline" : 								{
									"source" : [ "obj-13", 0 ],
									"destination" : [ "obj-12", 0 ],
									"hidden" : 0,
									"midpoints" : [  ]
								}

							}
, 							{
								"patchline" : 								{
									"source" : [ "obj-6", 0 ],
									"destination" : [ "obj-52", 0 ],
									"hidden" : 0,
									"midpoints" : [  ]
								}

							}
, 							{
								"patchline" : 								{
									"source" : [ "obj-5", 0 ],
									"destination" : [ "obj-51", 0 ],
									"hidden" : 0,
									"midpoints" : [  ]
								}

							}
, 							{
								"patchline" : 								{
									"source" : [ "obj-47", 0 ],
									"destination" : [ "obj-5", 0 ],
									"hidden" : 0,
									"midpoints" : [  ]
								}

							}
, 							{
								"patchline" : 								{
									"source" : [ "obj-47", 0 ],
									"destination" : [ "obj-6", 0 ],
									"hidden" : 0,
									"midpoints" : [ 22.5, 245.0, 73.5, 245.0 ]
								}

							}
 ]
					}
,
					"saved_object_attributes" : 					{
						"fontname" : "Arial",
						"default_fontface" : 0,
						"default_fontname" : "Arial",
						"fontface" : 0,
						"fontsize" : 12.0,
						"default_fontsize" : 12.0,
						"globalpatchername" : ""
					}

				}

			}
, 			{
				"box" : 				{
					"maxclass" : "newobj",
					"text" : "out~ 2",
					"fontname" : "Arial",
					"patching_rect" : [ 263.0, 510.0, 43.0, 20.0 ],
					"fontsize" : 11.595187,
					"id" : "obj-45",
					"numinlets" : 1,
					"numoutlets" : 0,
					"saved_object_attributes" : 					{

					}

				}

			}
, 			{
				"box" : 				{
					"maxclass" : "newobj",
					"text" : "unpack 0 0",
					"fontname" : "Arial",
					"patching_rect" : [ 94.0, 114.0, 69.0, 20.0 ],
					"fontsize" : 12.0,
					"id" : "obj-8",
					"numinlets" : 1,
					"numoutlets" : 2,
					"outlettype" : [ "int", "int" ]
				}

			}
, 			{
				"box" : 				{
					"maxclass" : "newobj",
					"text" : "t l l",
					"fontname" : "Arial",
					"patching_rect" : [ 80.0, 88.0, 32.5, 20.0 ],
					"fontsize" : 12.0,
					"id" : "obj-5",
					"numinlets" : 1,
					"numoutlets" : 2,
					"outlettype" : [ "", "" ]
				}

			}
, 			{
				"box" : 				{
					"maxclass" : "newobj",
					"text" : "stripnote",
					"fontname" : "Arial",
					"patching_rect" : [ 80.0, 138.0, 57.0, 20.0 ],
					"fontsize" : 12.0,
					"id" : "obj-2",
					"numinlets" : 2,
					"numoutlets" : 2,
					"outlettype" : [ "int", "int" ]
				}

			}
, 			{
				"box" : 				{
					"maxclass" : "newobj",
					"text" : "in 11",
					"fontname" : "Arial",
					"patching_rect" : [ 142.0, 186.0, 37.0, 20.0 ],
					"fontsize" : 12.0,
					"id" : "obj-39",
					"numinlets" : 1,
					"numoutlets" : 1,
					"outlettype" : [ "" ],
					"saved_object_attributes" : 					{

					}

				}

			}
, 			{
				"box" : 				{
					"maxclass" : "newobj",
					"text" : "p portamento",
					"fontname" : "Arial",
					"patching_rect" : [ 80.0, 214.0, 81.0, 20.0 ],
					"fontsize" : 12.0,
					"id" : "obj-42",
					"numinlets" : 2,
					"numoutlets" : 1,
					"outlettype" : [ "" ],
					"patcher" : 					{
						"fileversion" : 1,
						"rect" : [ 25.0, 69.0, 461.0, 346.0 ],
						"bglocked" : 0,
						"defrect" : [ 25.0, 69.0, 461.0, 346.0 ],
						"openrect" : [ 0.0, 0.0, 0.0, 0.0 ],
						"openinpresentation" : 0,
						"default_fontsize" : 12.0,
						"default_fontface" : 0,
						"default_fontname" : "Arial",
						"gridonopen" : 0,
						"gridsize" : [ 10.0, 10.0 ],
						"gridsnaponopen" : 0,
						"toolbarvisible" : 1,
						"boxanimatetime" : 200,
						"imprint" : 0,
						"metadata" : [  ],
						"boxes" : [ 							{
								"box" : 								{
									"maxclass" : "newobj",
									"text" : "r porta_freq",
									"fontname" : "Arial",
									"patching_rect" : [ 218.0, 140.0, 73.0, 20.0 ],
									"fontsize" : 12.0,
									"id" : "obj-6",
									"numinlets" : 0,
									"numoutlets" : 1,
									"outlettype" : [ "" ]
								}

							}
, 							{
								"box" : 								{
									"maxclass" : "newobj",
									"text" : "s porta_freq",
									"fontname" : "Arial",
									"patching_rect" : [ 106.0, 169.0, 75.0, 20.0 ],
									"fontsize" : 12.0,
									"id" : "obj-3",
									"numinlets" : 1,
									"numoutlets" : 0
								}

							}
, 							{
								"box" : 								{
									"maxclass" : "newobj",
									"text" : "+ 1",
									"fontname" : "Arial",
									"patching_rect" : [ 345.0, 198.0, 32.5, 20.0 ],
									"fontsize" : 12.0,
									"id" : "obj-5",
									"numinlets" : 2,
									"numoutlets" : 1,
									"outlettype" : [ "int" ]
								}

							}
, 							{
								"box" : 								{
									"maxclass" : "newobj",
									"text" : "> 0.",
									"fontname" : "Arial",
									"patching_rect" : [ 345.0, 169.0, 32.5, 20.0 ],
									"fontsize" : 12.0,
									"id" : "obj-4",
									"numinlets" : 2,
									"numoutlets" : 1,
									"outlettype" : [ "int" ]
								}

							}
, 							{
								"box" : 								{
									"maxclass" : "newobj",
									"text" : "gate 2 1",
									"fontname" : "Arial",
									"patching_rect" : [ 71.0, 113.0, 54.0, 20.0 ],
									"fontsize" : 12.0,
									"id" : "obj-2",
									"numinlets" : 2,
									"numoutlets" : 2,
									"outlettype" : [ "", "" ]
								}

							}
, 							{
								"box" : 								{
									"maxclass" : "inlet",
									"patching_rect" : [ 300.0, 84.0, 25.0, 25.0 ],
									"id" : "obj-1",
									"numinlets" : 0,
									"numoutlets" : 1,
									"outlettype" : [ "" ],
									"comment" : ""
								}

							}
, 							{
								"box" : 								{
									"maxclass" : "newobj",
									"text" : "t b f f",
									"fontname" : "Arial",
									"patching_rect" : [ 300.0, 140.0, 46.0, 20.0 ],
									"fontsize" : 12.0,
									"id" : "obj-38",
									"numinlets" : 1,
									"numoutlets" : 3,
									"outlettype" : [ "bang", "float", "float" ]
								}

							}
, 							{
								"box" : 								{
									"maxclass" : "newobj",
									"text" : "t f f",
									"fontname" : "Arial",
									"patching_rect" : [ 106.0, 140.0, 88.5, 20.0 ],
									"fontsize" : 12.0,
									"id" : "obj-30",
									"numinlets" : 1,
									"numoutlets" : 2,
									"outlettype" : [ "float", "float" ]
								}

							}
, 							{
								"box" : 								{
									"maxclass" : "message",
									"text" : "0., $1 0.",
									"fontname" : "Arial",
									"patching_rect" : [ 176.0, 198.0, 114.0, 18.0 ],
									"fontsize" : 12.0,
									"id" : "obj-29",
									"numinlets" : 2,
									"numoutlets" : 1,
									"outlettype" : [ "" ]
								}

							}
, 							{
								"box" : 								{
									"maxclass" : "newobj",
									"text" : "sprintf %f\\, \\$1 %f",
									"fontname" : "Arial",
									"patching_rect" : [ 218.0, 169.0, 115.0, 20.0 ],
									"fontsize" : 12.0,
									"id" : "obj-27",
									"numinlets" : 2,
									"numoutlets" : 1,
									"outlettype" : [ "" ]
								}

							}
, 							{
								"box" : 								{
									"maxclass" : "inlet",
									"patching_rect" : [ 106.0, 84.0, 25.0, 25.0 ],
									"id" : "obj-40",
									"numinlets" : 0,
									"numoutlets" : 1,
									"outlettype" : [ "" ],
									"comment" : ""
								}

							}
, 							{
								"box" : 								{
									"maxclass" : "outlet",
									"patching_rect" : [ 71.0, 239.0, 25.0, 25.0 ],
									"id" : "obj-41",
									"numinlets" : 1,
									"numoutlets" : 0,
									"comment" : ""
								}

							}
 ],
						"lines" : [ 							{
								"patchline" : 								{
									"source" : [ "obj-30", 0 ],
									"destination" : [ "obj-3", 0 ],
									"hidden" : 0,
									"midpoints" : [  ]
								}

							}
, 							{
								"patchline" : 								{
									"source" : [ "obj-30", 1 ],
									"destination" : [ "obj-29", 0 ],
									"hidden" : 0,
									"midpoints" : [  ]
								}

							}
, 							{
								"patchline" : 								{
									"source" : [ "obj-40", 0 ],
									"destination" : [ "obj-2", 1 ],
									"hidden" : 0,
									"midpoints" : [  ]
								}

							}
, 							{
								"patchline" : 								{
									"source" : [ "obj-2", 0 ],
									"destination" : [ "obj-41", 0 ],
									"hidden" : 0,
									"midpoints" : [  ]
								}

							}
, 							{
								"patchline" : 								{
									"source" : [ "obj-29", 0 ],
									"destination" : [ "obj-41", 0 ],
									"hidden" : 0,
									"midpoints" : [ 185.5, 226.0, 80.5, 226.0 ]
								}

							}
, 							{
								"patchline" : 								{
									"source" : [ "obj-2", 1 ],
									"destination" : [ "obj-30", 0 ],
									"hidden" : 0,
									"midpoints" : [  ]
								}

							}
, 							{
								"patchline" : 								{
									"source" : [ "obj-1", 0 ],
									"destination" : [ "obj-38", 0 ],
									"hidden" : 0,
									"midpoints" : [  ]
								}

							}
, 							{
								"patchline" : 								{
									"source" : [ "obj-38", 2 ],
									"destination" : [ "obj-4", 0 ],
									"hidden" : 0,
									"midpoints" : [ 336.5, 164.0, 354.5, 164.0 ]
								}

							}
, 							{
								"patchline" : 								{
									"source" : [ "obj-4", 0 ],
									"destination" : [ "obj-5", 0 ],
									"hidden" : 0,
									"midpoints" : [  ]
								}

							}
, 							{
								"patchline" : 								{
									"source" : [ "obj-5", 0 ],
									"destination" : [ "obj-2", 0 ],
									"hidden" : 0,
									"midpoints" : [ 354.5, 225.0, 389.0, 225.0, 389.0, 73.0, 80.5, 73.0 ]
								}

							}
, 							{
								"patchline" : 								{
									"source" : [ "obj-38", 0 ],
									"destination" : [ "obj-27", 0 ],
									"hidden" : 0,
									"midpoints" : [ 309.5, 164.0, 229.0, 164.0, 229.0, 166.0, 227.5, 166.0 ]
								}

							}
, 							{
								"patchline" : 								{
									"source" : [ "obj-38", 1 ],
									"destination" : [ "obj-27", 1 ],
									"hidden" : 0,
									"midpoints" : [  ]
								}

							}
, 							{
								"patchline" : 								{
									"source" : [ "obj-27", 0 ],
									"destination" : [ "obj-29", 1 ],
									"hidden" : 0,
									"midpoints" : [ 227.5, 193.0, 280.5, 193.0 ]
								}

							}
, 							{
								"patchline" : 								{
									"source" : [ "obj-6", 0 ],
									"destination" : [ "obj-27", 0 ],
									"hidden" : 0,
									"midpoints" : [  ]
								}

							}
 ]
					}
,
					"saved_object_attributes" : 					{
						"fontname" : "Arial",
						"default_fontface" : 0,
						"default_fontname" : "Arial",
						"fontface" : 0,
						"fontsize" : 12.0,
						"default_fontsize" : 12.0,
						"globalpatchername" : ""
					}

				}

			}
, 			{
				"box" : 				{
					"maxclass" : "newobj",
					"text" : "in 9",
					"fontname" : "Arial",
					"patching_rect" : [ 213.0, 240.0, 30.0, 20.0 ],
					"fontsize" : 12.0,
					"id" : "obj-4",
					"numinlets" : 1,
					"numoutlets" : 1,
					"outlettype" : [ "" ],
					"saved_object_attributes" : 					{
						"attr_comment" : ""
					}

				}

			}
, 			{
				"box" : 				{
					"maxclass" : "newobj",
					"text" : "p vibrato",
					"fontname" : "Arial",
					"patching_rect" : [ 80.0, 267.0, 152.0, 20.0 ],
					"fontsize" : 12.0,
					"id" : "obj-37",
					"numinlets" : 4,
					"numoutlets" : 1,
					"outlettype" : [ "signal" ],
					"patcher" : 					{
						"fileversion" : 1,
						"rect" : [ 25.0, 69.0, 284.0, 343.0 ],
						"bglocked" : 0,
						"defrect" : [ 25.0, 69.0, 284.0, 343.0 ],
						"openrect" : [ 0.0, 0.0, 0.0, 0.0 ],
						"openinpresentation" : 0,
						"default_fontsize" : 12.0,
						"default_fontface" : 0,
						"default_fontname" : "Arial",
						"gridonopen" : 0,
						"gridsize" : [ 10.0, 10.0 ],
						"gridsnaponopen" : 0,
						"toolbarvisible" : 1,
						"boxanimatetime" : 200,
						"imprint" : 0,
						"metadata" : [  ],
						"boxes" : [ 							{
								"box" : 								{
									"maxclass" : "inlet",
									"patching_rect" : [ 146.0, 70.0, 25.0, 25.0 ],
									"id" : "obj-1",
									"numinlets" : 0,
									"numoutlets" : 1,
									"outlettype" : [ "" ],
									"comment" : ""
								}

							}
, 							{
								"box" : 								{
									"maxclass" : "newobj",
									"text" : "p freq_stab",
									"fontname" : "Arial",
									"patching_rect" : [ 94.0, 145.5, 71.0, 20.0 ],
									"fontsize" : 12.0,
									"id" : "obj-126",
									"numinlets" : 2,
									"numoutlets" : 1,
									"outlettype" : [ "signal" ],
									"patcher" : 									{
										"fileversion" : 1,
										"rect" : [ 25.0, 69.0, 640.0, 480.0 ],
										"bglocked" : 0,
										"defrect" : [ 25.0, 69.0, 640.0, 480.0 ],
										"openrect" : [ 0.0, 0.0, 0.0, 0.0 ],
										"openinpresentation" : 0,
										"default_fontsize" : 12.0,
										"default_fontface" : 0,
										"default_fontname" : "Arial",
										"gridonopen" : 0,
										"gridsize" : [ 10.0, 10.0 ],
										"gridsnaponopen" : 0,
										"toolbarvisible" : 1,
										"boxanimatetime" : 200,
										"imprint" : 0,
										"metadata" : [  ],
										"boxes" : [ 											{
												"box" : 												{
													"maxclass" : "newobj",
													"text" : "*~ 0.",
													"fontname" : "Arial",
													"patching_rect" : [ 78.0, 183.0, 36.0, 20.0 ],
													"fontsize" : 12.0,
													"id" : "obj-85",
													"numinlets" : 2,
													"numoutlets" : 1,
													"outlettype" : [ "signal" ]
												}

											}
, 											{
												"box" : 												{
													"maxclass" : "newobj",
													"text" : "*~",
													"fontname" : "Arial",
													"patching_rect" : [ 64.0, 209.0, 32.5, 20.0 ],
													"fontsize" : 12.0,
													"id" : "obj-67",
													"numinlets" : 2,
													"numoutlets" : 1,
													"outlettype" : [ "signal" ]
												}

											}
, 											{
												"box" : 												{
													"maxclass" : "newobj",
													"text" : "rand~ 10",
													"fontname" : "Arial",
													"patching_rect" : [ 64.0, 158.0, 58.0, 20.0 ],
													"fontsize" : 12.0,
													"id" : "obj-69",
													"numinlets" : 1,
													"numoutlets" : 1,
													"outlettype" : [ "signal" ]
												}

											}
, 											{
												"box" : 												{
													"maxclass" : "newobj",
													"text" : "+~",
													"fontname" : "Arial",
													"patching_rect" : [ 50.0, 238.0, 32.5, 20.0 ],
													"fontsize" : 12.0,
													"id" : "obj-70",
													"numinlets" : 2,
													"numoutlets" : 1,
													"outlettype" : [ "signal" ]
												}

											}
, 											{
												"box" : 												{
													"maxclass" : "inlet",
													"patching_rect" : [ 50.0, 70.0, 25.0, 25.0 ],
													"id" : "obj-104",
													"numinlets" : 0,
													"numoutlets" : 1,
													"outlettype" : [ "signal" ],
													"comment" : ""
												}

											}
, 											{
												"box" : 												{
													"maxclass" : "inlet",
													"patching_rect" : [ 95.0, 70.0, 25.0, 25.0 ],
													"id" : "obj-105",
													"numinlets" : 0,
													"numoutlets" : 1,
													"outlettype" : [ "" ],
													"comment" : ""
												}

											}
, 											{
												"box" : 												{
													"maxclass" : "outlet",
													"patching_rect" : [ 50.0, 263.0, 25.0, 25.0 ],
													"id" : "obj-106",
													"numinlets" : 1,
													"numoutlets" : 0,
													"comment" : ""
												}

											}
 ],
										"lines" : [ 											{
												"patchline" : 												{
													"source" : [ "obj-70", 0 ],
													"destination" : [ "obj-106", 0 ],
													"hidden" : 0,
													"midpoints" : [  ]
												}

											}
, 											{
												"patchline" : 												{
													"source" : [ "obj-69", 0 ],
													"destination" : [ "obj-67", 0 ],
													"hidden" : 0,
													"midpoints" : [  ]
												}

											}
, 											{
												"patchline" : 												{
													"source" : [ "obj-67", 0 ],
													"destination" : [ "obj-70", 1 ],
													"hidden" : 0,
													"midpoints" : [  ]
												}

											}
, 											{
												"patchline" : 												{
													"source" : [ "obj-85", 0 ],
													"destination" : [ "obj-67", 1 ],
													"hidden" : 0,
													"midpoints" : [  ]
												}

											}
, 											{
												"patchline" : 												{
													"source" : [ "obj-105", 0 ],
													"destination" : [ "obj-85", 1 ],
													"hidden" : 0,
													"midpoints" : [  ]
												}

											}
, 											{
												"patchline" : 												{
													"source" : [ "obj-104", 0 ],
													"destination" : [ "obj-70", 0 ],
													"hidden" : 0,
													"midpoints" : [  ]
												}

											}
, 											{
												"patchline" : 												{
													"source" : [ "obj-104", 0 ],
													"destination" : [ "obj-85", 0 ],
													"hidden" : 0,
													"midpoints" : [ 59.5, 120.0, 87.5, 120.0 ]
												}

											}
 ]
									}
,
									"saved_object_attributes" : 									{
										"fontname" : "Arial",
										"default_fontface" : 0,
										"default_fontname" : "Arial",
										"fontface" : 0,
										"fontsize" : 12.0,
										"default_fontsize" : 12.0,
										"globalpatchername" : ""
									}

								}

							}
, 							{
								"box" : 								{
									"maxclass" : "message",
									"text" : "$1 50",
									"fontname" : "Arial",
									"patching_rect" : [ 94.0, 98.0, 41.0, 18.0 ],
									"fontsize" : 12.0,
									"id" : "obj-30",
									"numinlets" : 2,
									"numoutlets" : 1,
									"outlettype" : [ "" ]
								}

							}
, 							{
								"box" : 								{
									"maxclass" : "newobj",
									"text" : "line~",
									"fontname" : "Arial",
									"patching_rect" : [ 94.0, 122.0, 36.0, 20.0 ],
									"fontsize" : 12.0,
									"id" : "obj-31",
									"numinlets" : 2,
									"numoutlets" : 2,
									"outlettype" : [ "signal", "bang" ]
								}

							}
, 							{
								"box" : 								{
									"maxclass" : "message",
									"text" : "$1 50",
									"fontname" : "Arial",
									"patching_rect" : [ 176.0, 147.0, 41.0, 18.0 ],
									"fontsize" : 12.0,
									"id" : "obj-29",
									"numinlets" : 2,
									"numoutlets" : 1,
									"outlettype" : [ "" ]
								}

							}
, 							{
								"box" : 								{
									"maxclass" : "newobj",
									"text" : "line~",
									"fontname" : "Arial",
									"patching_rect" : [ 176.0, 171.0, 36.0, 20.0 ],
									"fontsize" : 12.0,
									"id" : "obj-27",
									"numinlets" : 2,
									"numoutlets" : 2,
									"outlettype" : [ "signal", "bang" ]
								}

							}
, 							{
								"box" : 								{
									"maxclass" : "newobj",
									"text" : "*~",
									"fontname" : "Arial",
									"patching_rect" : [ 94.0, 198.0, 100.5, 20.0 ],
									"fontsize" : 12.0,
									"id" : "obj-11",
									"numinlets" : 2,
									"numoutlets" : 1,
									"outlettype" : [ "signal" ]
								}

							}
, 							{
								"box" : 								{
									"maxclass" : "newobj",
									"text" : "cycle~",
									"fontname" : "Arial",
									"patching_rect" : [ 94.0, 172.0, 45.0, 20.0 ],
									"fontsize" : 12.0,
									"id" : "obj-5",
									"numinlets" : 2,
									"numoutlets" : 1,
									"outlettype" : [ "signal" ]
								}

							}
, 							{
								"box" : 								{
									"maxclass" : "newobj",
									"text" : "+~",
									"fontname" : "Arial",
									"patching_rect" : [ 58.0, 229.0, 32.5, 20.0 ],
									"fontsize" : 12.0,
									"id" : "obj-4",
									"numinlets" : 2,
									"numoutlets" : 1,
									"outlettype" : [ "signal" ]
								}

							}
, 							{
								"box" : 								{
									"maxclass" : "inlet",
									"patching_rect" : [ 58.0, 70.0, 25.0, 25.0 ],
									"id" : "obj-32",
									"numinlets" : 0,
									"numoutlets" : 1,
									"outlettype" : [ "signal" ],
									"comment" : ""
								}

							}
, 							{
								"box" : 								{
									"maxclass" : "inlet",
									"patching_rect" : [ 94.0, 70.0, 25.0, 25.0 ],
									"id" : "obj-34",
									"numinlets" : 0,
									"numoutlets" : 1,
									"outlettype" : [ "" ],
									"comment" : ""
								}

							}
, 							{
								"box" : 								{
									"maxclass" : "inlet",
									"patching_rect" : [ 176.0, 70.0, 25.0, 25.0 ],
									"id" : "obj-35",
									"numinlets" : 0,
									"numoutlets" : 1,
									"outlettype" : [ "" ],
									"comment" : ""
								}

							}
, 							{
								"box" : 								{
									"maxclass" : "outlet",
									"patching_rect" : [ 58.0, 259.0, 25.0, 25.0 ],
									"id" : "obj-36",
									"numinlets" : 1,
									"numoutlets" : 0,
									"comment" : ""
								}

							}
 ],
						"lines" : [ 							{
								"patchline" : 								{
									"source" : [ "obj-5", 0 ],
									"destination" : [ "obj-11", 0 ],
									"hidden" : 0,
									"midpoints" : [  ]
								}

							}
, 							{
								"patchline" : 								{
									"source" : [ "obj-29", 0 ],
									"destination" : [ "obj-27", 0 ],
									"hidden" : 0,
									"midpoints" : [  ]
								}

							}
, 							{
								"patchline" : 								{
									"source" : [ "obj-27", 0 ],
									"destination" : [ "obj-11", 1 ],
									"hidden" : 0,
									"midpoints" : [  ]
								}

							}
, 							{
								"patchline" : 								{
									"source" : [ "obj-30", 0 ],
									"destination" : [ "obj-31", 0 ],
									"hidden" : 0,
									"midpoints" : [  ]
								}

							}
, 							{
								"patchline" : 								{
									"source" : [ "obj-32", 0 ],
									"destination" : [ "obj-4", 0 ],
									"hidden" : 0,
									"midpoints" : [  ]
								}

							}
, 							{
								"patchline" : 								{
									"source" : [ "obj-34", 0 ],
									"destination" : [ "obj-30", 0 ],
									"hidden" : 0,
									"midpoints" : [  ]
								}

							}
, 							{
								"patchline" : 								{
									"source" : [ "obj-35", 0 ],
									"destination" : [ "obj-29", 0 ],
									"hidden" : 0,
									"midpoints" : [  ]
								}

							}
, 							{
								"patchline" : 								{
									"source" : [ "obj-4", 0 ],
									"destination" : [ "obj-36", 0 ],
									"hidden" : 0,
									"midpoints" : [  ]
								}

							}
, 							{
								"patchline" : 								{
									"source" : [ "obj-31", 0 ],
									"destination" : [ "obj-126", 0 ],
									"hidden" : 0,
									"midpoints" : [  ]
								}

							}
, 							{
								"patchline" : 								{
									"source" : [ "obj-126", 0 ],
									"destination" : [ "obj-5", 0 ],
									"hidden" : 0,
									"midpoints" : [  ]
								}

							}
, 							{
								"patchline" : 								{
									"source" : [ "obj-1", 0 ],
									"destination" : [ "obj-126", 1 ],
									"hidden" : 0,
									"midpoints" : [  ]
								}

							}
, 							{
								"patchline" : 								{
									"source" : [ "obj-11", 0 ],
									"destination" : [ "obj-4", 1 ],
									"hidden" : 0,
									"midpoints" : [ 103.5, 223.0, 81.0, 223.0 ]
								}

							}
 ]
					}
,
					"saved_object_attributes" : 					{
						"fontname" : "Arial",
						"default_fontface" : 0,
						"default_fontname" : "Arial",
						"fontface" : 0,
						"fontsize" : 12.0,
						"default_fontsize" : 12.0,
						"globalpatchername" : ""
					}

				}

			}
, 			{
				"box" : 				{
					"maxclass" : "newobj",
					"text" : "in 8",
					"fontname" : "Arial",
					"patching_rect" : [ 169.0, 241.0, 30.0, 20.0 ],
					"fontsize" : 12.0,
					"id" : "obj-26",
					"numinlets" : 1,
					"numoutlets" : 1,
					"outlettype" : [ "" ],
					"saved_object_attributes" : 					{
						"attr_comment" : ""
					}

				}

			}
, 			{
				"box" : 				{
					"maxclass" : "newobj",
					"text" : "in 7",
					"fontname" : "Arial",
					"patching_rect" : [ 124.0, 241.0, 30.0, 20.0 ],
					"fontsize" : 12.0,
					"id" : "obj-13",
					"numinlets" : 1,
					"numoutlets" : 1,
					"outlettype" : [ "" ],
					"saved_object_attributes" : 					{
						"attr_comment" : ""
					}

				}

			}
, 			{
				"box" : 				{
					"maxclass" : "newobj",
					"text" : "out 1",
					"fontname" : "Arial",
					"patching_rect" : [ 355.0, 479.0, 37.0, 20.0 ],
					"fontsize" : 12.0,
					"id" : "obj-1",
					"numinlets" : 1,
					"numoutlets" : 0,
					"saved_object_attributes" : 					{
						"attr_comment" : ""
					}

				}

			}
, 			{
				"box" : 				{
					"maxclass" : "newobj",
					"text" : "/ 127.",
					"fontname" : "Arial",
					"patching_rect" : [ 288.0, 165.0, 39.0, 20.0 ],
					"fontsize" : 11.595187,
					"id" : "obj-6",
					"numinlets" : 2,
					"numoutlets" : 1,
					"outlettype" : [ "float" ]
				}

			}
, 			{
				"box" : 				{
					"maxclass" : "newobj",
					"text" : "thispoly~",
					"fontname" : "Arial",
					"patching_rect" : [ 379.0, 252.0, 55.0, 20.0 ],
					"fontsize" : 11.595187,
					"id" : "obj-10",
					"numinlets" : 1,
					"numoutlets" : 2,
					"outlettype" : [ "int", "int" ]
				}

			}
, 			{
				"box" : 				{
					"maxclass" : "newobj",
					"text" : "*~",
					"fontname" : "Arial",
					"patching_rect" : [ 80.0, 447.0, 32.5, 20.0 ],
					"fontsize" : 11.595187,
					"id" : "obj-14",
					"numinlets" : 2,
					"numoutlets" : 1,
					"outlettype" : [ "signal" ]
				}

			}
, 			{
				"box" : 				{
					"maxclass" : "newobj",
					"text" : "line~",
					"fontname" : "Arial",
					"patching_rect" : [ 80.0, 238.0, 35.0, 20.0 ],
					"fontsize" : 11.595187,
					"id" : "obj-16",
					"numinlets" : 2,
					"numoutlets" : 2,
					"outlettype" : [ "signal", "bang" ]
				}

			}
, 			{
				"box" : 				{
					"maxclass" : "newobj",
					"text" : "mtof",
					"fontname" : "Arial",
					"patching_rect" : [ 80.0, 186.0, 33.0, 20.0 ],
					"fontsize" : 11.595187,
					"id" : "obj-17",
					"numinlets" : 1,
					"numoutlets" : 1,
					"outlettype" : [ "" ]
				}

			}
, 			{
				"box" : 				{
					"maxclass" : "newobj",
					"text" : "in 1",
					"fontname" : "Arial",
					"patching_rect" : [ 80.0, 64.0, 29.0, 20.0 ],
					"fontsize" : 11.595187,
					"id" : "obj-18",
					"numinlets" : 1,
					"numoutlets" : 1,
					"outlettype" : [ "" ],
					"saved_object_attributes" : 					{
						"attr_comment" : ""
					}

				}

			}
, 			{
				"box" : 				{
					"maxclass" : "newobj",
					"text" : "in 6",
					"fontname" : "Arial",
					"patching_rect" : [ 427.0, 155.0, 27.0, 20.0 ],
					"fontsize" : 11.595187,
					"id" : "obj-19",
					"numinlets" : 1,
					"numoutlets" : 1,
					"outlettype" : [ "" ],
					"saved_object_attributes" : 					{
						"attr_comment" : ""
					}

				}

			}
, 			{
				"box" : 				{
					"maxclass" : "newobj",
					"text" : "in 5",
					"fontname" : "Arial",
					"patching_rect" : [ 401.25, 131.0, 27.0, 20.0 ],
					"fontsize" : 11.595187,
					"id" : "obj-20",
					"numinlets" : 1,
					"numoutlets" : 1,
					"outlettype" : [ "" ],
					"saved_object_attributes" : 					{
						"attr_comment" : ""
					}

				}

			}
, 			{
				"box" : 				{
					"maxclass" : "newobj",
					"text" : "in 4",
					"fontname" : "Arial",
					"patching_rect" : [ 375.5, 106.0, 27.0, 20.0 ],
					"fontsize" : 11.595187,
					"id" : "obj-21",
					"numinlets" : 1,
					"numoutlets" : 1,
					"outlettype" : [ "" ],
					"saved_object_attributes" : 					{
						"attr_comment" : ""
					}

				}

			}
, 			{
				"box" : 				{
					"maxclass" : "newobj",
					"text" : "in 3",
					"fontname" : "Arial",
					"patching_rect" : [ 349.75, 83.0, 27.0, 20.0 ],
					"fontsize" : 11.595187,
					"id" : "obj-22",
					"numinlets" : 1,
					"numoutlets" : 1,
					"outlettype" : [ "" ],
					"saved_object_attributes" : 					{
						"attr_comment" : ""
					}

				}

			}
, 			{
				"box" : 				{
					"maxclass" : "newobj",
					"text" : "adsr~ 2. 100. 0.6 300.",
					"fontname" : "Arial",
					"patching_rect" : [ 324.0, 200.0, 122.0, 20.0 ],
					"fontsize" : 11.595187,
					"id" : "obj-23",
					"numinlets" : 5,
					"numoutlets" : 4,
					"outlettype" : [ "signal", "signal", "", "" ]
				}

			}
, 			{
				"box" : 				{
					"maxclass" : "newobj",
					"text" : "out~ 1",
					"fontname" : "Arial",
					"patching_rect" : [ 80.0, 510.0, 43.0, 20.0 ],
					"fontsize" : 11.595187,
					"id" : "obj-24",
					"numinlets" : 1,
					"numoutlets" : 0,
					"saved_object_attributes" : 					{
						"attr_comment" : ""
					}

				}

			}
, 			{
				"box" : 				{
					"maxclass" : "newobj",
					"text" : "in 2",
					"fontname" : "Arial",
					"patching_rect" : [ 324.0, 60.0, 27.0, 20.0 ],
					"fontsize" : 11.595187,
					"id" : "obj-25",
					"numinlets" : 1,
					"numoutlets" : 1,
					"outlettype" : [ "" ],
					"saved_object_attributes" : 					{
						"attr_comment" : ""
					}

				}

			}
, 			{
				"box" : 				{
					"maxclass" : "newobj",
					"text" : "in 10",
					"fontname" : "Arial",
					"patching_rect" : [ 132.0, 293.0, 37.0, 20.0 ],
					"fontsize" : 12.0,
					"id" : "obj-7",
					"numinlets" : 1,
					"numoutlets" : 1,
					"outlettype" : [ "" ],
					"saved_object_attributes" : 					{
						"attr_comment" : ""
					}

				}

			}
, 			{
				"box" : 				{
					"maxclass" : "newobj",
					"text" : "phasor~ 1",
					"fontname" : "Arial",
					"patching_rect" : [ 80.0, 347.5, 64.0, 20.0 ],
					"fontsize" : 12.0,
					"id" : "obj-124",
					"numinlets" : 2,
					"numoutlets" : 1,
					"outlettype" : [ "signal" ]
				}

			}
, 			{
				"box" : 				{
					"maxclass" : "newobj",
					"text" : "p freq_stab",
					"fontname" : "Arial",
					"patching_rect" : [ 80.0, 319.5, 71.0, 20.0 ],
					"fontsize" : 12.0,
					"id" : "obj-126",
					"numinlets" : 2,
					"numoutlets" : 1,
					"outlettype" : [ "signal" ],
					"patcher" : 					{
						"fileversion" : 1,
						"rect" : [ 25.0, 69.0, 640.0, 480.0 ],
						"bglocked" : 0,
						"defrect" : [ 25.0, 69.0, 640.0, 480.0 ],
						"openrect" : [ 0.0, 0.0, 0.0, 0.0 ],
						"openinpresentation" : 0,
						"default_fontsize" : 12.0,
						"default_fontface" : 0,
						"default_fontname" : "Arial",
						"gridonopen" : 0,
						"gridsize" : [ 10.0, 10.0 ],
						"gridsnaponopen" : 0,
						"toolbarvisible" : 1,
						"boxanimatetime" : 200,
						"imprint" : 0,
						"metadata" : [  ],
						"boxes" : [ 							{
								"box" : 								{
									"maxclass" : "newobj",
									"text" : "*~ 0.",
									"fontname" : "Arial",
									"patching_rect" : [ 78.0, 183.0, 36.0, 20.0 ],
									"fontsize" : 12.0,
									"id" : "obj-85",
									"numinlets" : 2,
									"numoutlets" : 1,
									"outlettype" : [ "signal" ]
								}

							}
, 							{
								"box" : 								{
									"maxclass" : "newobj",
									"text" : "*~",
									"fontname" : "Arial",
									"patching_rect" : [ 64.0, 209.0, 32.5, 20.0 ],
									"fontsize" : 12.0,
									"id" : "obj-67",
									"numinlets" : 2,
									"numoutlets" : 1,
									"outlettype" : [ "signal" ]
								}

							}
, 							{
								"box" : 								{
									"maxclass" : "newobj",
									"text" : "rand~ 10",
									"fontname" : "Arial",
									"patching_rect" : [ 64.0, 158.0, 58.0, 20.0 ],
									"fontsize" : 12.0,
									"id" : "obj-69",
									"numinlets" : 1,
									"numoutlets" : 1,
									"outlettype" : [ "signal" ]
								}

							}
, 							{
								"box" : 								{
									"maxclass" : "newobj",
									"text" : "+~",
									"fontname" : "Arial",
									"patching_rect" : [ 50.0, 238.0, 32.5, 20.0 ],
									"fontsize" : 12.0,
									"id" : "obj-70",
									"numinlets" : 2,
									"numoutlets" : 1,
									"outlettype" : [ "signal" ]
								}

							}
, 							{
								"box" : 								{
									"maxclass" : "inlet",
									"patching_rect" : [ 50.0, 70.0, 25.0, 25.0 ],
									"id" : "obj-104",
									"numinlets" : 0,
									"numoutlets" : 1,
									"outlettype" : [ "signal" ],
									"comment" : ""
								}

							}
, 							{
								"box" : 								{
									"maxclass" : "inlet",
									"patching_rect" : [ 95.0, 70.0, 25.0, 25.0 ],
									"id" : "obj-105",
									"numinlets" : 0,
									"numoutlets" : 1,
									"outlettype" : [ "" ],
									"comment" : ""
								}

							}
, 							{
								"box" : 								{
									"maxclass" : "outlet",
									"patching_rect" : [ 50.0, 263.0, 25.0, 25.0 ],
									"id" : "obj-106",
									"numinlets" : 1,
									"numoutlets" : 0,
									"comment" : ""
								}

							}
 ],
						"lines" : [ 							{
								"patchline" : 								{
									"source" : [ "obj-104", 0 ],
									"destination" : [ "obj-85", 0 ],
									"hidden" : 0,
									"midpoints" : [ 59.5, 120.0, 87.5, 120.0 ]
								}

							}
, 							{
								"patchline" : 								{
									"source" : [ "obj-104", 0 ],
									"destination" : [ "obj-70", 0 ],
									"hidden" : 0,
									"midpoints" : [  ]
								}

							}
, 							{
								"patchline" : 								{
									"source" : [ "obj-105", 0 ],
									"destination" : [ "obj-85", 1 ],
									"hidden" : 0,
									"midpoints" : [  ]
								}

							}
, 							{
								"patchline" : 								{
									"source" : [ "obj-85", 0 ],
									"destination" : [ "obj-67", 1 ],
									"hidden" : 0,
									"midpoints" : [  ]
								}

							}
, 							{
								"patchline" : 								{
									"source" : [ "obj-67", 0 ],
									"destination" : [ "obj-70", 1 ],
									"hidden" : 0,
									"midpoints" : [  ]
								}

							}
, 							{
								"patchline" : 								{
									"source" : [ "obj-69", 0 ],
									"destination" : [ "obj-67", 0 ],
									"hidden" : 0,
									"midpoints" : [  ]
								}

							}
, 							{
								"patchline" : 								{
									"source" : [ "obj-70", 0 ],
									"destination" : [ "obj-106", 0 ],
									"hidden" : 0,
									"midpoints" : [  ]
								}

							}
 ]
					}
,
					"saved_object_attributes" : 					{
						"fontname" : "Arial",
						"default_fontface" : 0,
						"default_fontname" : "Arial",
						"fontface" : 0,
						"fontsize" : 12.0,
						"default_fontsize" : 12.0,
						"globalpatchername" : ""
					}

				}

			}
, 			{
				"box" : 				{
					"maxclass" : "newobj",
					"text" : "p selector_line~",
					"fontname" : "Arial",
					"patching_rect" : [ 80.0, 411.5, 137.0, 20.0 ],
					"fontsize" : 12.0,
					"id" : "obj-110",
					"numinlets" : 2,
					"numoutlets" : 2,
					"outlettype" : [ "signal", "bang" ],
					"patcher" : 					{
						"fileversion" : 1,
						"rect" : [ 25.0, 69.0, 293.0, 261.0 ],
						"bglocked" : 0,
						"defrect" : [ 25.0, 69.0, 293.0, 261.0 ],
						"openrect" : [ 0.0, 0.0, 0.0, 0.0 ],
						"openinpresentation" : 0,
						"default_fontsize" : 12.0,
						"default_fontface" : 0,
						"default_fontname" : "Arial",
						"gridonopen" : 0,
						"gridsize" : [ 10.0, 10.0 ],
						"gridsnaponopen" : 0,
						"toolbarvisible" : 1,
						"boxanimatetime" : 200,
						"imprint" : 0,
						"metadata" : [  ],
						"boxes" : [ 							{
								"box" : 								{
									"maxclass" : "newobj",
									"text" : "r WaveGen_Interp",
									"fontname" : "Arial",
									"patching_rect" : [ 137.0, 29.5, 109.0, 20.0 ],
									"fontsize" : 12.0,
									"id" : "obj-57",
									"numinlets" : 0,
									"numoutlets" : 1,
									"color" : [ 1.0, 0.901961, 0.0, 0.8 ],
									"outlettype" : [ "" ]
								}

							}
, 							{
								"box" : 								{
									"maxclass" : "newobj",
									"text" : "r WaveGen_lastbuf",
									"fontname" : "Arial",
									"patching_rect" : [ 102.0, 5.0, 113.0, 20.0 ],
									"fontsize" : 12.0,
									"id" : "obj-9",
									"numinlets" : 0,
									"numoutlets" : 1,
									"color" : [ 1.0, 0.901961, 0.0, 0.8 ],
									"outlettype" : [ "" ]
								}

							}
, 							{
								"box" : 								{
									"maxclass" : "outlet",
									"patching_rect" : [ 150.0, 223.0, 25.0, 25.0 ],
									"id" : "obj-20",
									"numinlets" : 1,
									"numoutlets" : 0,
									"comment" : ""
								}

							}
, 							{
								"box" : 								{
									"maxclass" : "newobj",
									"text" : "sprintf \\$1 %d",
									"fontname" : "Arial",
									"patching_rect" : [ 137.0, 55.0, 84.0, 20.0 ],
									"fontsize" : 12.0,
									"id" : "obj-14",
									"numinlets" : 1,
									"numoutlets" : 1,
									"outlettype" : [ "" ]
								}

							}
, 							{
								"box" : 								{
									"maxclass" : "newobj",
									"text" : "!- 1",
									"fontname" : "Arial",
									"patching_rect" : [ 102.0, 77.75, 32.5, 20.0 ],
									"fontsize" : 12.0,
									"id" : "obj-13",
									"numinlets" : 2,
									"numoutlets" : 1,
									"outlettype" : [ "int" ]
								}

							}
, 							{
								"box" : 								{
									"maxclass" : "newobj",
									"text" : "- 1",
									"fontname" : "Arial",
									"patching_rect" : [ 102.0, 53.75, 32.0, 20.0 ],
									"fontsize" : 12.0,
									"id" : "obj-12",
									"numinlets" : 2,
									"numoutlets" : 1,
									"outlettype" : [ "int" ]
								}

							}
, 							{
								"box" : 								{
									"maxclass" : "message",
									"text" : "$1 500",
									"fontname" : "Arial",
									"patching_rect" : [ 102.0, 103.75, 54.0, 18.0 ],
									"fontsize" : 12.0,
									"id" : "obj-11",
									"numinlets" : 2,
									"numoutlets" : 1,
									"outlettype" : [ "" ]
								}

							}
, 							{
								"box" : 								{
									"maxclass" : "newobj",
									"text" : "!-~ 1",
									"fontname" : "Arial",
									"patching_rect" : [ 102.0, 161.75, 35.0, 20.0 ],
									"fontsize" : 12.0,
									"id" : "obj-8",
									"numinlets" : 2,
									"numoutlets" : 1,
									"outlettype" : [ "signal" ]
								}

							}
, 							{
								"box" : 								{
									"maxclass" : "newobj",
									"text" : "line~ 1",
									"fontname" : "Arial",
									"patching_rect" : [ 102.0, 132.75, 46.0, 20.0 ],
									"fontsize" : 12.0,
									"id" : "obj-7",
									"numinlets" : 2,
									"numoutlets" : 2,
									"outlettype" : [ "signal", "bang" ]
								}

							}
, 							{
								"box" : 								{
									"maxclass" : "newobj",
									"text" : "*~",
									"fontname" : "Arial",
									"patching_rect" : [ 70.0, 194.0, 32.5, 20.0 ],
									"fontsize" : 12.0,
									"id" : "obj-5",
									"numinlets" : 2,
									"numoutlets" : 1,
									"outlettype" : [ "signal" ]
								}

							}
, 							{
								"box" : 								{
									"maxclass" : "newobj",
									"text" : "*~",
									"fontname" : "Arial",
									"patching_rect" : [ 29.0, 194.0, 32.5, 20.0 ],
									"fontsize" : 12.0,
									"id" : "obj-4",
									"numinlets" : 2,
									"numoutlets" : 1,
									"outlettype" : [ "signal" ]
								}

							}
, 							{
								"box" : 								{
									"maxclass" : "outlet",
									"patching_rect" : [ 29.0, 223.0, 25.0, 25.0 ],
									"id" : "obj-3",
									"numinlets" : 1,
									"numoutlets" : 0,
									"comment" : ""
								}

							}
, 							{
								"box" : 								{
									"maxclass" : "inlet",
									"patching_rect" : [ 71.0, 25.0, 25.0, 25.0 ],
									"id" : "obj-2",
									"numinlets" : 0,
									"numoutlets" : 1,
									"outlettype" : [ "signal" ],
									"comment" : ""
								}

							}
, 							{
								"box" : 								{
									"maxclass" : "inlet",
									"patching_rect" : [ 29.0, 25.0, 25.0, 25.0 ],
									"id" : "obj-1",
									"numinlets" : 0,
									"numoutlets" : 1,
									"outlettype" : [ "signal" ],
									"comment" : ""
								}

							}
 ],
						"lines" : [ 							{
								"patchline" : 								{
									"source" : [ "obj-1", 0 ],
									"destination" : [ "obj-4", 0 ],
									"hidden" : 0,
									"midpoints" : [  ]
								}

							}
, 							{
								"patchline" : 								{
									"source" : [ "obj-4", 0 ],
									"destination" : [ "obj-3", 0 ],
									"hidden" : 0,
									"midpoints" : [  ]
								}

							}
, 							{
								"patchline" : 								{
									"source" : [ "obj-2", 0 ],
									"destination" : [ "obj-5", 0 ],
									"hidden" : 0,
									"midpoints" : [  ]
								}

							}
, 							{
								"patchline" : 								{
									"source" : [ "obj-7", 0 ],
									"destination" : [ "obj-8", 0 ],
									"hidden" : 0,
									"midpoints" : [  ]
								}

							}
, 							{
								"patchline" : 								{
									"source" : [ "obj-8", 0 ],
									"destination" : [ "obj-5", 1 ],
									"hidden" : 0,
									"midpoints" : [ 111.5, 186.0, 93.0, 186.0 ]
								}

							}
, 							{
								"patchline" : 								{
									"source" : [ "obj-7", 0 ],
									"destination" : [ "obj-4", 1 ],
									"hidden" : 0,
									"midpoints" : [ 111.5, 157.0, 52.0, 157.0 ]
								}

							}
, 							{
								"patchline" : 								{
									"source" : [ "obj-11", 0 ],
									"destination" : [ "obj-7", 0 ],
									"hidden" : 0,
									"midpoints" : [  ]
								}

							}
, 							{
								"patchline" : 								{
									"source" : [ "obj-5", 0 ],
									"destination" : [ "obj-3", 0 ],
									"hidden" : 0,
									"midpoints" : [ 79.5, 219.0, 38.5, 219.0 ]
								}

							}
, 							{
								"patchline" : 								{
									"source" : [ "obj-12", 0 ],
									"destination" : [ "obj-13", 0 ],
									"hidden" : 0,
									"midpoints" : [  ]
								}

							}
, 							{
								"patchline" : 								{
									"source" : [ "obj-13", 0 ],
									"destination" : [ "obj-11", 0 ],
									"hidden" : 0,
									"midpoints" : [  ]
								}

							}
, 							{
								"patchline" : 								{
									"source" : [ "obj-7", 1 ],
									"destination" : [ "obj-20", 0 ],
									"hidden" : 0,
									"midpoints" : [ 138.5, 162.0, 159.5, 162.0 ]
								}

							}
, 							{
								"patchline" : 								{
									"source" : [ "obj-9", 0 ],
									"destination" : [ "obj-12", 0 ],
									"hidden" : 0,
									"midpoints" : [  ]
								}

							}
, 							{
								"patchline" : 								{
									"source" : [ "obj-57", 0 ],
									"destination" : [ "obj-14", 0 ],
									"hidden" : 0,
									"midpoints" : [  ]
								}

							}
, 							{
								"patchline" : 								{
									"source" : [ "obj-14", 0 ],
									"destination" : [ "obj-11", 1 ],
									"hidden" : 0,
									"midpoints" : [  ]
								}

							}
 ]
					}
,
					"saved_object_attributes" : 					{
						"fontname" : "Arial",
						"default_fontface" : 0,
						"default_fontname" : "Arial",
						"fontface" : 0,
						"fontsize" : 12.0,
						"default_fontsize" : 12.0,
						"globalpatchername" : ""
					}

				}

			}
, 			{
				"box" : 				{
					"maxclass" : "newobj",
					"text" : "wave~ waveform2",
					"fontname" : "Arial",
					"patching_rect" : [ 198.0, 385.5, 108.0, 20.0 ],
					"fontsize" : 12.0,
					"id" : "obj-109",
					"numinlets" : 3,
					"numoutlets" : 1,
					"outlettype" : [ "signal" ]
				}

			}
, 			{
				"box" : 				{
					"maxclass" : "newobj",
					"text" : "wave~ waveform",
					"fontname" : "Arial",
					"patching_rect" : [ 80.0, 385.5, 101.0, 20.0 ],
					"fontsize" : 12.0,
					"id" : "obj-33",
					"numinlets" : 3,
					"numoutlets" : 1,
					"outlettype" : [ "signal" ]
				}

			}
 ],
		"lines" : [ 			{
				"patchline" : 				{
					"source" : [ "obj-3", 0 ],
					"destination" : [ "obj-53", 5 ],
					"hidden" : 0,
					"midpoints" : [  ]
				}

			}
, 			{
				"patchline" : 				{
					"source" : [ "obj-56", 0 ],
					"destination" : [ "obj-53", 4 ],
					"hidden" : 0,
					"midpoints" : [  ]
				}

			}
, 			{
				"patchline" : 				{
					"source" : [ "obj-55", 0 ],
					"destination" : [ "obj-53", 3 ],
					"hidden" : 0,
					"midpoints" : [  ]
				}

			}
, 			{
				"patchline" : 				{
					"source" : [ "obj-54", 0 ],
					"destination" : [ "obj-53", 2 ],
					"hidden" : 0,
					"midpoints" : [  ]
				}

			}
, 			{
				"patchline" : 				{
					"source" : [ "obj-23", 1 ],
					"destination" : [ "obj-53", 1 ],
					"hidden" : 0,
					"midpoints" : [ 367.833344, 450.0, 126.0, 450.0 ]
				}

			}
, 			{
				"patchline" : 				{
					"source" : [ "obj-8", 1 ],
					"destination" : [ "obj-6", 0 ],
					"hidden" : 0,
					"midpoints" : [ 153.5, 137.0, 297.5, 137.0 ]
				}

			}
, 			{
				"patchline" : 				{
					"source" : [ "obj-5", 1 ],
					"destination" : [ "obj-8", 0 ],
					"hidden" : 0,
					"midpoints" : [  ]
				}

			}
, 			{
				"patchline" : 				{
					"source" : [ "obj-5", 0 ],
					"destination" : [ "obj-2", 0 ],
					"hidden" : 0,
					"midpoints" : [  ]
				}

			}
, 			{
				"patchline" : 				{
					"source" : [ "obj-18", 0 ],
					"destination" : [ "obj-5", 0 ],
					"hidden" : 0,
					"midpoints" : [  ]
				}

			}
, 			{
				"patchline" : 				{
					"source" : [ "obj-4", 0 ],
					"destination" : [ "obj-37", 3 ],
					"hidden" : 0,
					"midpoints" : [  ]
				}

			}
, 			{
				"patchline" : 				{
					"source" : [ "obj-26", 0 ],
					"destination" : [ "obj-37", 2 ],
					"hidden" : 0,
					"midpoints" : [  ]
				}

			}
, 			{
				"patchline" : 				{
					"source" : [ "obj-13", 0 ],
					"destination" : [ "obj-37", 1 ],
					"hidden" : 0,
					"midpoints" : [  ]
				}

			}
, 			{
				"patchline" : 				{
					"source" : [ "obj-37", 0 ],
					"destination" : [ "obj-126", 0 ],
					"hidden" : 0,
					"midpoints" : [  ]
				}

			}
, 			{
				"patchline" : 				{
					"source" : [ "obj-110", 0 ],
					"destination" : [ "obj-14", 0 ],
					"hidden" : 0,
					"midpoints" : [  ]
				}

			}
, 			{
				"patchline" : 				{
					"source" : [ "obj-23", 0 ],
					"destination" : [ "obj-14", 1 ],
					"hidden" : 0,
					"midpoints" : [ 333.5, 439.0, 103.0, 439.0 ]
				}

			}
, 			{
				"patchline" : 				{
					"source" : [ "obj-6", 0 ],
					"destination" : [ "obj-23", 0 ],
					"hidden" : 0,
					"midpoints" : [ 297.5, 190.0, 333.5, 190.0 ]
				}

			}
, 			{
				"patchline" : 				{
					"source" : [ "obj-25", 0 ],
					"destination" : [ "obj-23", 0 ],
					"hidden" : 0,
					"midpoints" : [  ]
				}

			}
, 			{
				"patchline" : 				{
					"source" : [ "obj-23", 0 ],
					"destination" : [ "obj-10", 0 ],
					"hidden" : 0,
					"midpoints" : [ 333.5, 242.0, 388.5, 242.0 ]
				}

			}
, 			{
				"patchline" : 				{
					"source" : [ "obj-23", 2 ],
					"destination" : [ "obj-10", 0 ],
					"hidden" : 0,
					"midpoints" : [ 402.166656, 242.0, 388.5, 242.0 ]
				}

			}
, 			{
				"patchline" : 				{
					"source" : [ "obj-22", 0 ],
					"destination" : [ "obj-23", 1 ],
					"hidden" : 0,
					"midpoints" : [  ]
				}

			}
, 			{
				"patchline" : 				{
					"source" : [ "obj-21", 0 ],
					"destination" : [ "obj-23", 2 ],
					"hidden" : 0,
					"midpoints" : [  ]
				}

			}
, 			{
				"patchline" : 				{
					"source" : [ "obj-20", 0 ],
					"destination" : [ "obj-23", 3 ],
					"hidden" : 0,
					"midpoints" : [  ]
				}

			}
, 			{
				"patchline" : 				{
					"source" : [ "obj-19", 0 ],
					"destination" : [ "obj-23", 4 ],
					"hidden" : 0,
					"midpoints" : [  ]
				}

			}
, 			{
				"patchline" : 				{
					"source" : [ "obj-126", 0 ],
					"destination" : [ "obj-124", 0 ],
					"hidden" : 0,
					"midpoints" : [  ]
				}

			}
, 			{
				"patchline" : 				{
					"source" : [ "obj-33", 0 ],
					"destination" : [ "obj-110", 0 ],
					"hidden" : 0,
					"midpoints" : [  ]
				}

			}
, 			{
				"patchline" : 				{
					"source" : [ "obj-109", 0 ],
					"destination" : [ "obj-110", 1 ],
					"hidden" : 0,
					"midpoints" : [  ]
				}

			}
, 			{
				"patchline" : 				{
					"source" : [ "obj-42", 0 ],
					"destination" : [ "obj-16", 0 ],
					"hidden" : 0,
					"midpoints" : [  ]
				}

			}
, 			{
				"patchline" : 				{
					"source" : [ "obj-17", 0 ],
					"destination" : [ "obj-42", 0 ],
					"hidden" : 0,
					"midpoints" : [  ]
				}

			}
, 			{
				"patchline" : 				{
					"source" : [ "obj-39", 0 ],
					"destination" : [ "obj-42", 1 ],
					"hidden" : 0,
					"midpoints" : [  ]
				}

			}
, 			{
				"patchline" : 				{
					"source" : [ "obj-2", 0 ],
					"destination" : [ "obj-17", 0 ],
					"hidden" : 0,
					"midpoints" : [  ]
				}

			}
, 			{
				"patchline" : 				{
					"source" : [ "obj-16", 0 ],
					"destination" : [ "obj-37", 0 ],
					"hidden" : 0,
					"midpoints" : [  ]
				}

			}
, 			{
				"patchline" : 				{
					"source" : [ "obj-53", 1 ],
					"destination" : [ "obj-45", 0 ],
					"hidden" : 0,
					"midpoints" : [  ]
				}

			}
, 			{
				"patchline" : 				{
					"source" : [ "obj-53", 0 ],
					"destination" : [ "obj-24", 0 ],
					"hidden" : 0,
					"midpoints" : [  ]
				}

			}
, 			{
				"patchline" : 				{
					"source" : [ "obj-14", 0 ],
					"destination" : [ "obj-53", 0 ],
					"hidden" : 0,
					"midpoints" : [  ]
				}

			}
, 			{
				"patchline" : 				{
					"source" : [ "obj-7", 0 ],
					"destination" : [ "obj-126", 1 ],
					"hidden" : 0,
					"midpoints" : [  ]
				}

			}
, 			{
				"patchline" : 				{
					"source" : [ "obj-124", 0 ],
					"destination" : [ "obj-109", 0 ],
					"hidden" : 0,
					"midpoints" : [ 89.5, 376.0, 207.5, 376.0 ]
				}

			}
, 			{
				"patchline" : 				{
					"source" : [ "obj-124", 0 ],
					"destination" : [ "obj-33", 0 ],
					"hidden" : 0,
					"midpoints" : [  ]
				}

			}
 ]
	}

}
